<?xml version="1.0" standalone="no"?>
<!DOCTYPE svg PUBLIC "-//W3C//DTD SVG 20010904//EN"
 "http://www.w3.org/TR/2001/REC-SVG-20010904/DTD/svg10.dtd">
<svg version="1.0" xmlns="http://www.w3.org/2000/svg"
 width="512.000000pt" height="512.000000pt" viewBox="0 0 512.000000 512.000000"
 preserveAspectRatio="xMidYMid meet">
<metadata>
Created by potrace 1.14, written by Peter Selinger 2001-2017
</metadata>
<g transform="translate(0.000000,512.000000) scale(0.100000,-0.100000)"
fill="#000000" stroke="none">
<path d="M2320 4968 c-112 -10 -309 -49 -435 -85 -542 -155 -1026 -515 -1348
-1003 -200 -302 -339 -700 -378 -1074 -17 -170 -7 -487 20 -641 60 -342 180
-648 359 -920 110 -168 186 -261 326 -400 318 -316 730 -543 1161 -639 372
-84 781 -79 1138 14 919 237 1615 983 1781 1910 42 232 46 575 11 799 -147
937 -826 1706 -1730 1959 -289 81 -601 109 -905 80z m580 -503 c609 -111 1131
-506 1401 -1060 317 -653 241 -1429 -199 -2010 -378 -499 -991 -789 -1612
-761 -931 40 -1692 722 -1836 1644 -26 163 -23 431 5 597 67 387 238 732 499
1007 318 334 693 526 1167 598 98 14 466 5 575 -15z"/>
<path d="M1860 3770 l0 -220 216 -2 216 -3 59 -165 c32 -91 59 -168 59 -171 0
-3 -249 -408 -554 -900 l-553 -894 251 -3 c235 -2 252 -1 266 16 8 10 186 289
395 619 209 331 383 598 386 594 4 -3 124 -305 268 -671 145 -366 266 -669
271 -674 8 -8 786 209 804 225 12 11 -113 428 -128 424 -238 -79 -359 -116
-362 -112 -3 2 -195 487 -427 1078 l-422 1074 -373 3 -372 2 0 -220z"/>
</g>
</svg>
