<?xml version="1.0" standalone="no"?>
<!DOCTYPE svg PUBLIC "-//W3C//DTD SVG 20010904//EN"
 "http://www.w3.org/TR/2001/REC-SVG-20010904/DTD/svg10.dtd">
<svg version="1.0" xmlns="http://www.w3.org/2000/svg"
 width="768.000000pt" height="768.000000pt" viewBox="0 0 768.000000 768.000000"
 preserveAspectRatio="xMidYMid meet">
<metadata>
Created by potrace 1.14, written by Peter Selinger 2001-2017
</metadata>
<g transform="translate(0.000000,768.000000) scale(0.100000,-0.100000)"
fill="#000000" stroke="none">
<path d="M644 7635 c-3 -25 -3 -71 0 -103 6 -49 19 -83 68 -184 4 -10 8 -22 8
-28 0 -11 85 -126 100 -135 5 -3 18 -25 29 -49 13 -31 30 -49 54 -61 19 -9 43
-24 53 -33 32 -28 107 -78 150 -100 23 -12 61 -39 85 -62 24 -22 49 -40 56
-40 7 0 13 -7 13 -15 0 -21 30 -31 40 -15 12 19 41 -6 33 -28 -4 -13 -3 -14 5
-3 11 16 48 7 56 -14 3 -10 0 -12 -12 -8 -14 6 -15 4 -4 -9 7 -9 26 -19 42
-22 17 -3 44 -9 61 -12 17 -4 33 -13 36 -20 3 -8 16 -14 30 -14 13 0 33 -5 44
-11 15 -8 24 -7 35 2 11 9 18 10 22 2 4 -6 24 -14 45 -18 20 -4 40 -11 43 -16
3 -5 23 -9 44 -9 21 0 41 -4 44 -9 3 -4 38 -11 78 -14 42 -4 90 -15 113 -27
21 -11 45 -20 51 -20 6 0 25 -7 40 -15 16 -8 43 -15 61 -15 42 0 47 -10 16
-39 -31 -30 -66 -101 -83 -166 -7 -27 -27 -99 -45 -160 -37 -120 -50 -185 -61
-285 -3 -36 -12 -94 -20 -130 -8 -36 -14 -82 -14 -102 0 -20 -3 -39 -7 -41 -5
-3 -35 8 -68 24 -33 16 -66 27 -73 24 -8 -3 -21 0 -28 6 -7 6 -18 8 -24 4 -5
-3 -16 -3 -22 2 -7 4 -24 8 -38 9 -14 1 -68 5 -120 9 -86 7 -99 6 -134 -13
-22 -12 -43 -19 -48 -16 -5 3 -15 1 -22 -6 -8 -6 -25 -8 -39 -5 -19 5 -28 2
-37 -14 -6 -12 -17 -21 -26 -21 -8 0 -17 -7 -20 -15 -4 -8 -12 -15 -20 -15 -8
0 -14 -4 -14 -9 0 -5 -16 -15 -35 -21 -19 -6 -38 -17 -42 -24 -5 -7 -21 -20
-38 -29 -34 -17 -195 -181 -195 -198 0 -15 -40 -89 -62 -114 -9 -11 -29 -61
-44 -110 -21 -71 -28 -114 -29 -203 -2 -65 -7 -118 -14 -125 -6 -6 -7 -15 -2
-21 5 -6 14 -33 19 -61 21 -102 32 -133 82 -230 50 -98 154 -239 238 -322 23
-24 42 -46 42 -50 1 -5 22 -21 48 -37 26 -17 87 -56 135 -87 48 -32 105 -63
125 -70 20 -6 46 -18 57 -25 11 -8 27 -14 36 -14 9 0 24 -11 33 -25 10 -15 26
-25 41 -25 13 0 27 -5 30 -10 5 -8 11 -8 20 0 9 8 17 6 29 -5 9 -9 21 -13 26
-10 6 4 18 1 26 -6 8 -6 17 -9 21 -5 3 3 14 -1 23 -9 17 -15 67 -8 116 17 12
5 36 11 54 12 18 1 36 9 41 19 6 9 19 17 29 17 41 0 70 22 70 53 0 29 1 29 19
13 12 -11 21 -14 26 -7 13 21 22 10 44 -56 33 -96 69 -189 98 -253 14 -30 26
-68 27 -85 1 -16 5 -35 8 -41 4 -6 10 -30 14 -52 4 -23 10 -42 15 -42 5 0 9
-8 9 -19 0 -10 11 -35 25 -56 15 -20 24 -40 20 -43 -3 -3 2 -16 10 -29 9 -13
13 -23 10 -23 -3 0 5 -17 18 -37 23 -38 35 -67 77 -175 25 -64 47 -90 60 -69
5 9 12 4 24 -19 9 -18 16 -39 16 -47 0 -23 -18 -14 -28 15 l-10 27 -1 -25 c-1
-35 18 -100 29 -100 6 0 10 -8 10 -19 0 -10 11 -26 25 -35 28 -18 33 -36 11
-36 -22 0 -31 -22 -13 -32 9 -5 21 -26 27 -48 6 -21 17 -45 24 -52 7 -8 17
-48 20 -91 4 -42 12 -79 17 -83 5 -3 9 -17 9 -31 0 -15 7 -34 15 -43 9 -10 18
-35 21 -56 4 -22 17 -73 31 -114 13 -41 27 -107 30 -146 5 -63 3 -74 -15 -92
-17 -17 -19 -29 -15 -93 2 -41 5 -144 6 -229 1 -85 5 -160 10 -167 4 -6 3 -15
-3 -18 -8 -5 -8 -11 0 -20 7 -9 9 -27 5 -45 -4 -19 -3 -30 4 -30 6 0 11 -13
11 -29 0 -17 5 -33 11 -37 7 -4 9 -24 6 -50 -3 -34 -1 -44 10 -44 21 0 29 -31
10 -42 -10 -5 -17 -14 -17 -20 0 -7 5 -6 15 2 13 10 15 9 15 -10 0 -15 -4 -20
-15 -17 -8 4 -17 2 -20 -3 -8 -13 6 -40 21 -40 8 0 14 -7 14 -15 0 -8 -6 -12
-14 -9 -21 8 -30 -15 -13 -34 16 -19 29 -63 29 -105 1 -21 4 -25 14 -16 11 9
15 7 20 -5 3 -9 12 -16 20 -16 7 0 19 -9 27 -21 8 -11 24 -21 36 -22 14 -1 19
-6 16 -17 -6 -19 65 -90 89 -90 11 0 16 -9 16 -30 0 -20 -5 -30 -15 -30 -19 0
-19 -5 1 -35 10 -15 21 -22 31 -18 11 4 14 1 11 -13 -2 -10 3 -25 12 -31 13
-12 13 -14 -3 -27 -17 -13 -16 -14 3 -19 11 -3 20 -13 20 -24 0 -10 5 -25 10
-33 7 -12 12 -12 22 -2 16 16 28 15 28 -3 0 -8 16 -38 35 -65 19 -27 35 -54
35 -59 0 -5 14 -21 31 -35 20 -17 29 -32 25 -42 -4 -12 -1 -14 14 -9 12 4 20
2 20 -5 0 -6 8 -13 18 -17 9 -3 29 -17 43 -30 15 -14 39 -25 58 -25 17 -1 31
-5 31 -10 0 -5 -20 -6 -45 -3 -43 5 -45 4 -45 -20 l0 -25 208 0 c148 0 211 3
220 12 9 9 12 9 12 0 0 -15 108 -16 130 -2 13 8 13 13 2 30 -15 24 -8 40 17
40 10 0 28 11 41 25 18 20 26 22 37 13 8 -6 12 -20 10 -29 -3 -10 1 -20 9 -23
9 -3 14 1 14 12 1 19 23 52 35 52 4 0 4 -11 1 -25 -4 -14 -2 -25 3 -25 11 0
23 29 16 40 -3 5 -1 11 5 15 5 3 10 18 10 32 0 13 9 37 19 52 11 15 26 58 34
96 8 39 22 84 31 100 9 18 16 56 17 95 0 36 4 88 7 115 7 47 9 50 34 47 23 -2
28 2 34 25 10 49 13 54 31 51 11 -2 17 2 15 10 -4 23 17 52 35 45 11 -5 14 -3
8 6 -5 9 12 33 48 69 54 55 99 136 132 236 36 109 63 216 69 265 7 66 34 189
47 213 5 10 9 27 9 37 0 11 5 23 10 26 6 4 10 14 8 23 -1 10 1 22 5 28 3 6 14
54 23 105 9 52 22 107 29 124 13 29 13 29 14 5 1 -23 2 -23 17 -8 16 16 22 39
45 173 6 33 17 74 25 92 8 17 14 38 14 47 0 24 32 150 40 156 3 3 11 32 16 65
6 33 32 140 57 238 26 99 49 202 53 230 3 29 9 61 14 72 5 11 10 29 12 40 2
12 11 19 21 19 9 -1 17 4 17 12 0 8 -4 14 -10 14 -5 0 -10 10 -10 23 0 18 2
19 11 7 8 -11 12 -12 16 -2 2 6 9 10 14 7 4 -3 11 7 15 22 3 15 7 33 8 38 2 6
-4 15 -12 21 -12 9 -11 15 6 45 11 20 23 66 27 106 4 46 12 73 20 77 10 4 12
13 6 34 -7 24 -5 33 11 46 15 13 19 26 15 49 -3 18 -7 41 -9 52 -2 11 2 19 8
18 8 -1 10 12 7 41 -3 26 -1 46 6 50 7 5 11 -1 11 -14 0 -12 4 -18 11 -15 7 5
8 29 4 69 -6 54 -4 63 14 80 23 21 71 15 71 -10 0 -12 13 -14 70 -12 63 3 69
5 64 22 -6 18 -2 18 64 12 39 -4 73 -3 76 2 3 5 38 7 78 4 78 -4 185 11 203
29 7 9 4 10 -13 6 -13 -3 -20 -1 -16 5 4 5 18 8 32 5 28 -5 127 26 153 49 21
18 39 18 39 -1 0 -27 27 -15 46 20 6 11 22 20 35 20 29 0 80 26 178 91 40 27
81 54 90 59 9 6 20 16 24 23 5 7 12 10 18 7 19 -12 125 59 189 125 77 81 120
134 120 148 0 5 12 36 26 67 23 52 33 87 51 177 3 17 10 25 19 21 8 -3 14 1
14 11 0 9 -4 16 -10 16 -15 0 -12 30 5 47 14 14 14 17 0 34 -12 12 -15 27 -11
46 17 75 -64 286 -140 363 -18 20 -34 39 -34 43 0 4 -27 35 -60 69 -33 33 -60
64 -60 68 0 4 -27 26 -61 50 -34 24 -74 56 -91 72 -16 15 -33 26 -38 23 -5 -3
-29 8 -53 25 -25 16 -50 30 -56 30 -6 0 -11 5 -11 10 0 6 -9 10 -20 10 -13 0
-24 10 -30 25 -5 14 -17 25 -28 25 -10 0 -22 3 -26 7 -10 10 -74 31 -118 38
-22 4 -42 13 -44 20 -3 6 -17 12 -32 13 -77 2 -112 5 -112 11 0 10 -123 12
-145 2 -67 -30 -94 -41 -104 -41 -7 0 -11 26 -11 70 0 54 -6 82 -23 118 -13
26 -32 85 -42 132 -10 47 -36 139 -58 205 -27 81 -40 139 -41 180 -1 57 0 60
24 63 14 2 29 8 35 13 5 5 22 9 38 9 36 0 67 16 67 36 0 9 8 14 23 13 42 -4
55 1 60 22 3 12 10 18 16 15 5 -4 13 -2 16 4 9 15 81 60 138 87 26 12 47 27
47 33 0 5 9 10 19 10 11 0 22 9 26 19 3 11 31 34 62 51 31 17 97 72 147 121
50 48 105 96 122 105 37 20 75 79 100 154 11 30 22 57 25 60 18 16 39 58 39
77 0 12 9 38 20 58 27 48 43 193 29 252 l-11 43 -95 0 -94 0 -25 -55 c-13 -31
-24 -59 -24 -63 0 -4 -25 -35 -55 -67 -45 -49 -57 -57 -65 -45 -5 8 -10 20
-10 27 0 7 -9 17 -20 23 -11 6 -20 17 -20 24 0 15 -21 26 -51 26 -10 0 -19 4
-19 8 0 14 35 42 53 42 9 0 17 6 17 14 0 8 5 16 11 18 7 2 9 13 5 26 -7 20
-14 22 -74 22 -56 0 -69 -3 -80 -20 -7 -11 -21 -20 -32 -20 -11 0 -29 -4 -40
-10 -11 -5 -29 -14 -40 -20 -11 -5 -28 -10 -37 -10 -10 0 -34 -10 -53 -21 -19
-12 -64 -32 -100 -45 -98 -34 -285 -111 -377 -155 -44 -21 -87 -39 -95 -39 -7
0 -42 -18 -78 -40 -36 -22 -69 -40 -73 -40 -5 0 -24 -12 -43 -26 -33 -25 -35
-26 -53 -10 -11 10 -22 29 -26 44 -3 14 -22 43 -40 63 -18 21 -41 50 -51 66
-33 52 -169 179 -248 231 l-77 52 -172 -1 c-163 -1 -170 -1 -137 -16 19 -8 47
-24 61 -34 15 -10 38 -19 51 -19 12 0 43 -14 68 -31 25 -16 70 -43 102 -59 31
-16 73 -41 95 -55 58 -40 233 -213 233 -231 0 -8 12 -31 26 -49 14 -19 23 -38
20 -44 -4 -5 -28 -17 -54 -25 -26 -9 -59 -27 -73 -40 -25 -23 -62 -46 -74 -46
-4 0 2 12 13 28 10 15 22 35 25 46 4 11 13 16 22 12 17 -6 30 10 15 19 -8 5
-6 13 6 26 19 21 16 23 -46 33 -27 4 -31 3 -19 -6 13 -9 4 -22 -59 -89 -41
-43 -79 -76 -85 -72 -6 4 -8 0 -4 -10 4 -11 1 -17 -8 -17 -8 0 -15 -6 -15 -12
0 -12 -62 -68 -74 -68 -14 0 -4 24 29 70 19 27 35 53 35 57 0 5 32 40 70 78
39 39 80 82 91 97 l20 27 -36 36 c-19 20 -35 43 -35 51 0 17 -16 18 -26 2 -4
-6 -2 -14 4 -16 21 -7 13 -30 -26 -71 -28 -29 -41 -38 -49 -30 -8 8 -18 7 -35
-5 l-23 -17 28 7 c45 11 32 -16 -35 -71 -34 -27 -77 -65 -96 -82 -19 -18 -36
-33 -38 -33 -13 0 0 30 26 59 17 18 30 37 30 42 0 5 6 6 14 3 9 -3 16 4 20 21
8 32 44 89 83 132 23 25 32 30 41 21 9 -9 12 -8 12 5 0 11 5 14 16 10 14 -5
15 -3 5 14 -9 18 -7 22 10 26 27 7 20 28 -14 45 -15 7 -27 17 -27 23 0 5 -13
9 -30 9 -20 0 -30 -5 -30 -15 0 -20 -19 -19 -27 1 -4 11 2 23 18 35 22 17 23
18 3 13 -12 -3 -25 -1 -28 5 -4 6 -2 11 3 11 6 0 11 7 11 15 0 20 -13 19 -33
-3 -12 -13 -14 -21 -6 -29 8 -8 8 -13 0 -17 -11 -7 4 -44 24 -58 14 -11 -16
-58 -52 -82 -18 -12 -31 -27 -28 -34 7 -19 -24 -62 -41 -55 -10 4 -14 -2 -14
-20 0 -26 -55 -77 -84 -77 -15 0 -9 26 25 115 4 11 13 42 21 69 8 31 20 51 31
54 9 2 17 8 17 14 0 5 10 22 22 38 18 25 19 32 8 45 -8 10 -10 19 -4 23 5 4 9
22 10 40 1 26 -3 32 -21 32 -11 0 -36 -14 -53 -31 -25 -25 -33 -28 -38 -16 -6
17 -36 16 -42 -1 -2 -7 3 -12 12 -12 20 0 21 -19 1 -26 -17 -7 -21 -34 -5 -34
6 0 10 -7 10 -15 0 -8 -7 -15 -16 -15 -8 0 -42 -28 -74 -62 l-60 -63 0 33 c0
18 -11 60 -25 94 -26 64 -29 89 -16 123 8 19 8 19 20 -3 9 -17 9 -27 2 -36
-16 -19 14 -45 32 -27 9 9 8 16 -2 33 -10 17 -11 25 0 44 7 13 9 27 4 31 -4 5
-10 2 -12 -4 -5 -15 -33 -17 -33 -3 0 6 -9 10 -21 10 -11 0 -18 4 -15 9 9 14
-19 32 -45 29 -20 -3 -25 2 -29 32 l-5 35 -197 3 -197 2 -9 -37 c-14 -55 -77
-325 -98 -420 -27 -119 -34 -113 -58 50 -16 102 -39 241 -52 304 -6 30 -4 34
28 47 19 8 43 13 54 10 26 -6 46 9 38 29 -5 15 -28 17 -203 17 l-198 0 -71
-35 c-79 -38 -260 -181 -324 -255 -44 -51 -124 -175 -158 -247 l-21 -43 -49
25 c-27 14 -60 25 -72 25 -13 0 -48 15 -78 33 -30 17 -109 50 -175 71 -66 22
-128 46 -137 54 -9 8 -23 12 -30 9 -7 -2 -35 4 -61 15 -70 27 -157 55 -197 63
-32 7 -41 11 -90 35 -11 6 -36 10 -55 10 -29 0 -35 4 -35 22 0 17 -3 19 -12
10 -18 -18 -28 -15 -28 8 0 11 -4 20 -10 20 -5 0 -10 -7 -10 -15 0 -16 -12
-20 -23 -8 -4 3 -2 12 4 20 9 10 8 13 -4 13 -9 0 -23 7 -32 16 -12 13 -19 14
-28 5 -18 -18 -29 -13 -18 8 9 16 2 22 -53 50 -35 17 -68 31 -74 31 -6 0 -19
14 -29 30 -17 29 -20 30 -90 30 -40 0 -73 -2 -73 -5 0 -19 54 -98 98 -145 38
-40 51 -61 50 -79 -2 -17 3 -26 14 -29 12 -2 16 1 12 11 -9 24 10 27 49 9 37
-16 47 -35 26 -48 -7 -4 -9 -21 -6 -40 3 -19 1 -36 -4 -39 -5 -4 -9 0 -9 8 0
8 -7 18 -16 21 -32 12 -54 5 -71 -21 -28 -46 -66 -83 -83 -83 -17 0 -95 65
-151 124 -15 15 -37 49 -49 75 -12 25 -26 54 -32 64 -5 10 -6 27 -3 38 4 12 1
21 -9 25 -12 4 -14 17 -10 60 l5 54 -120 0 -120 0 -7 -45z m2716 -22 c0 -5 -9
-34 -20 -66 -18 -53 -44 -186 -89 -447 -15 -91 -17 -95 -43 -98 -22 -3 -28 1
-32 20 -6 37 -56 258 -73 326 -31 125 -56 92 -82 -108 -12 -86 -28 -178 -36
-205 -8 -28 -15 -62 -15 -77 0 -15 -11 -39 -23 -54 l-24 -28 -29 21 c-17 12
-63 39 -104 61 -41 22 -95 50 -120 63 -25 13 -46 25 -48 26 -23 11 216 276
303 336 16 11 48 36 69 54 59 50 234 137 279 139 54 2 57 6 12 13 l-40 7 45
11 c57 14 70 15 70 6z m2808 -138 c22 -25 46 -45 51 -45 25 0 7 -31 -49 -83
-33 -31 -60 -61 -60 -66 0 -5 -15 -16 -32 -24 -18 -9 -49 -32 -67 -51 -19 -20
-42 -36 -50 -36 -8 0 -12 3 -8 6 9 9 -15 57 -63 122 -70 96 -97 78 -39 -26 18
-32 38 -68 45 -81 7 -13 18 -27 25 -31 17 -11 3 -27 -44 -49 -23 -11 -67 -42
-97 -70 -30 -28 -61 -49 -67 -46 -7 2 -13 -2 -13 -10 0 -8 -17 -27 -37 -42
-21 -15 -54 -44 -73 -63 -63 -62 -150 -140 -155 -140 -3 0 -5 16 -5 36 0 61
-72 184 -108 184 -5 0 -12 7 -16 15 -7 20 -26 19 -26 -2 0 -20 39 -103 57
-121 7 -7 13 -26 13 -41 0 -15 9 -37 21 -50 27 -29 19 -58 -26 -94 -26 -21
-35 -24 -35 -12 0 22 -81 185 -92 185 -5 0 -35 21 -66 46 l-57 47 -3 -32 c-3
-26 9 -47 72 -127 42 -52 76 -105 76 -116 0 -12 8 -27 18 -34 16 -13 16 -15
-5 -33 -13 -11 -23 -23 -23 -28 0 -5 -10 -17 -22 -27 -21 -18 -22 -18 -35 0
-7 10 -13 24 -13 31 0 22 -31 63 -83 112 -68 64 -93 79 -109 63 -16 -16 2 -47
64 -114 26 -28 48 -55 48 -58 0 -4 14 -25 31 -46 l31 -39 -42 -37 c-24 -21
-48 -38 -55 -38 -7 0 -15 17 -18 38 -6 33 -23 73 -61 139 -16 28 -72 78 -111
98 -82 43 -130 75 -133 88 -2 9 25 32 70 60 40 25 91 60 113 77 22 17 87 65
145 105 58 40 117 83 133 95 15 12 67 38 115 57 48 19 96 38 107 43 87 38 165
69 190 74 26 6 142 57 228 102 16 8 33 14 39 14 10 0 207 91 238 110 23 14 24
13 68 -35z m-4718 25 c0 -5 -2 -10 -4 -10 -3 0 -8 5 -11 10 -3 6 -1 10 4 10 6
0 11 -4 11 -10z m24 -121 c22 -11 52 -19 68 -19 27 0 105 -26 122 -41 4 -4
-10 -18 -33 -31 -38 -21 -55 -48 -31 -48 6 0 10 -4 10 -10 0 -15 -36 -12 -50
5 -7 8 -19 15 -26 15 -8 0 -14 -7 -14 -15 0 -8 -5 -15 -11 -15 -14 0 -77 -69
-85 -93 -6 -19 -39 -20 -39 0 0 6 17 30 37 52 20 23 38 49 40 58 2 9 14 20 27
23 23 5 23 6 5 28 l-19 23 -79 -82 c-74 -76 -80 -80 -102 -68 -15 7 -24 21
-24 36 0 26 -12 30 -30 9 -9 -12 -17 -13 -36 -4 -13 6 -24 15 -24 20 0 16 82
108 97 108 7 0 13 -9 13 -20 0 -12 -7 -20 -17 -20 -17 -1 -17 -1 0 -11 18 -10
18 -11 0 -24 -10 -7 -14 -17 -10 -22 5 -4 18 5 30 22 12 16 41 49 65 72 34 33
42 46 37 63 -6 19 -4 21 17 15 12 -4 41 -16 62 -26z m2916 17 c0 -8 -4 -17 -9
-21 -12 -7 -24 12 -16 25 9 15 25 12 25 -4z m180 -44 c0 -13 -31 -52 -41 -52
-5 0 -3 14 6 30 14 28 35 41 35 22z m-2797 -77 c80 -24 87 -30 55 -57 -14 -13
-29 -34 -33 -46 -5 -18 -12 -22 -28 -19 -16 4 -29 -3 -45 -24 -31 -38 -24 -57
10 -30 38 30 46 26 14 -8 -16 -17 -35 -27 -45 -24 -12 3 -23 -7 -36 -31 -22
-40 -27 -43 -45 -21 -7 8 -21 15 -33 15 -22 0 -87 37 -87 50 0 5 14 22 31 39
40 40 23 40 -22 1 -42 -39 -49 -23 -14 35 16 29 33 45 45 45 11 0 20 -4 20
-10 0 -5 5 -10 10 -10 16 0 109 64 109 76 1 13 22 34 34 34 5 0 32 -7 60 -15z
m2747 -22 c0 -5 -14 -24 -30 -43 -34 -40 -41 -24 -8 20 21 29 38 39 38 23z
m-2555 -63 c22 -11 45 -20 52 -20 19 0 16 -14 -8 -36 -21 -19 -64 -94 -54 -94
11 0 52 26 97 62 46 37 68 47 68 29 0 -5 14 -14 31 -20 17 -6 33 -20 36 -31 6
-22 24 -25 53 -10 14 8 29 5 60 -11 22 -12 42 -25 45 -30 3 -4 12 -6 19 -3 17
6 117 -38 135 -59 7 -10 23 -17 35 -17 11 0 32 -9 46 -20 14 -11 30 -20 37
-20 28 0 103 -41 114 -61 10 -20 8 -25 -17 -46 -36 -29 -114 -67 -134 -66 -16
1 -60 -80 -60 -109 0 -29 -19 -31 -53 -5 -18 13 -47 32 -64 41 -18 9 -33 20
-33 24 0 4 16 18 36 31 31 21 35 29 31 55 -2 17 3 46 11 64 12 24 13 35 5 43
-16 16 -43 3 -43 -20 0 -11 -4 -22 -9 -25 -4 -3 -14 -33 -21 -67 -7 -33 -19
-63 -26 -66 -7 -3 -36 3 -64 12 -62 21 -63 33 -9 121 22 36 37 69 34 72 -8 8
-66 -27 -87 -53 -10 -12 -17 -37 -18 -62 0 -42 -15 -58 -26 -28 -4 8 -13 15
-20 15 -8 0 -33 12 -57 27 -23 15 -44 28 -45 29 -2 2 12 31 32 66 54 96 52 93
69 80 12 -10 16 -9 20 2 4 9 2 18 -3 21 -6 4 -10 15 -10 26 0 10 -7 19 -15 19
-8 0 -15 -3 -15 -7 0 -5 -12 -21 -26 -38 -15 -16 -44 -58 -65 -91 l-39 -62
-70 26 c-39 15 -70 32 -70 38 0 7 11 22 25 35 17 17 25 35 25 59 0 20 7 46 16
58 24 35 10 37 -24 3 -17 -17 -38 -55 -47 -86 -20 -63 -27 -70 -52 -57 -71 37
-107 52 -118 52 -8 0 -17 4 -20 10 -9 14 14 52 27 44 6 -4 32 15 58 42 55 56
76 74 88 74 5 0 21 14 35 30 32 36 32 36 82 10z m1925 -254 c74 -2 149 -7 165
-10 17 -4 48 -9 70 -12 61 -8 246 -54 283 -70 40 -18 33 -35 -12 -30 -28 4
-39 -1 -72 -36 -34 -36 -36 -40 -14 -33 21 6 23 5 12 -6 -7 -7 -22 -14 -34
-14 -14 0 -27 -12 -40 -37 -11 -21 -25 -38 -31 -38 -6 0 -21 -10 -32 -23 -11
-13 -37 -33 -57 -46 -20 -12 -40 -31 -44 -43 -7 -23 -79 -98 -94 -98 -6 0 -10
-6 -10 -12 0 -7 -16 -30 -35 -51 -19 -21 -35 -43 -35 -49 0 -10 -16 -47 -71
-161 -9 -21 -21 -52 -24 -70 -4 -18 -11 -36 -15 -42 -4 -5 -11 -43 -15 -82 -4
-40 -10 -73 -14 -73 -11 0 -13 -197 -2 -205 6 -3 11 -19 11 -35 0 -20 6 -31
20 -35 11 -3 20 -15 20 -25 0 -57 22 -228 32 -247 17 -33 43 -28 68 12 12 19
26 33 30 30 9 -6 -5 -48 -24 -73 -12 -17 7 -37 26 -26 7 5 20 9 28 9 14 0 48
89 49 131 1 12 7 24 14 27 8 3 24 31 36 64 12 32 31 76 42 98 10 22 19 48 19
57 0 10 13 43 29 75 16 32 35 78 41 103 7 25 22 59 35 76 13 17 29 50 35 74 8
28 14 39 20 31 4 -7 5 -21 3 -32 -3 -10 2 -32 11 -50 9 -18 16 -40 16 -51 0
-10 7 -18 16 -18 15 0 15 -2 0 -22 -9 -13 -19 -30 -23 -38 -4 -8 -24 -38 -45
-67 -21 -29 -38 -56 -38 -62 0 -5 -18 -32 -40 -60 -26 -33 -45 -48 -55 -45 -8
4 -15 1 -15 -5 0 -6 5 -11 10 -11 16 0 2 -70 -19 -100 -19 -26 -41 -84 -61
-160 -7 -25 -16 -58 -21 -74 -5 -16 -7 -31 -5 -34 3 -2 -7 -34 -21 -70 -42
-109 -37 -199 14 -271 1 -2 9 1 17 8 11 9 15 8 20 -4 7 -18 26 -20 26 -2 0 7
16 31 35 53 19 21 35 46 35 55 0 9 8 23 18 33 10 9 32 41 47 71 16 30 35 55
43 55 7 0 12 8 11 18 -3 32 1 42 15 42 19 0 46 38 39 55 -8 22 49 105 73 105
5 0 22 14 37 29 16 16 54 39 85 51 32 12 71 28 89 35 63 28 125 29 194 5 119
-42 173 -75 216 -132 58 -77 92 -159 68 -166 -6 -1 -13 14 -18 35 -4 20 -19
51 -32 69 -14 18 -25 37 -25 42 0 14 -39 46 -47 39 -4 -4 5 -20 20 -35 14 -15
29 -39 32 -55 4 -15 11 -30 16 -33 5 -3 9 -16 9 -30 0 -13 4 -24 9 -24 9 0 9
-48 0 -65 -11 -19 -10 -97 1 -131 7 -19 8 -43 4 -52 -4 -9 -8 -24 -10 -32 -6
-30 -184 -162 -184 -136 0 8 13 19 29 24 48 17 114 136 124 222 6 50 -14 142
-45 205 -40 83 -50 96 -64 91 -8 -3 -37 10 -64 29 -39 27 -61 35 -101 37 -28
1 -53 6 -55 10 -3 5 -12 1 -20 -7 -9 -8 -33 -15 -54 -15 -52 0 -70 -8 -70 -33
0 -12 -17 -39 -39 -62 -80 -83 -102 -235 -49 -348 32 -68 37 -73 123 -132 63
-43 80 -49 164 -54 39 -2 13 -16 -32 -17 -23 -1 -71 -4 -107 -7 -36 -3 -83 -2
-105 4 -22 6 -47 11 -55 11 -36 3 -131 75 -123 94 7 18 -67 19 -89 2 -8 -7
-25 -53 -37 -103 -13 -49 -27 -98 -32 -107 -5 -10 -9 -26 -9 -37 0 -10 -7 -21
-15 -25 -8 -3 -15 -12 -15 -20 0 -10 -6 -13 -15 -10 -18 7 -21 -27 -4 -57 8
-16 7 -25 -5 -38 -9 -10 -16 -27 -16 -39 0 -12 -5 -32 -11 -45 -16 -35 1 -91
29 -95 23 -4 29 -17 12 -27 -6 -3 -7 -17 -4 -29 3 -15 -1 -29 -12 -40 -21 -22
-13 -94 16 -143 24 -41 25 -57 5 -49 -8 3 -15 1 -15 -4 0 -6 7 -10 15 -10 8 0
15 -7 15 -15 0 -9 -6 -12 -17 -8 -15 6 -16 5 -3 -9 8 -9 18 -15 21 -15 4 1 7
-2 7 -8 0 -5 -5 -9 -10 -7 -6 1 -16 -2 -23 -8 -9 -8 -23 0 -54 30 -22 22 -41
47 -41 55 0 8 -5 15 -12 15 -7 0 -25 12 -41 28 -27 26 -32 27 -145 28 -115 2
-118 1 -182 -33 -36 -19 -74 -43 -86 -54 -11 -10 -26 -19 -32 -19 -7 0 -12 -7
-12 -15 0 -9 -9 -15 -23 -15 -30 0 -40 -10 -26 -26 9 -10 7 -15 -5 -20 -9 -3
-32 -34 -53 -68 -20 -33 -56 -89 -80 -124 -51 -74 -62 -109 -39 -118 24 -9 59
17 179 135 59 58 113 108 120 110 12 4 130 56 157 70 8 5 44 9 80 10 67 2 64
2 192 -67 39 -21 76 -65 128 -151 9 -15 42 -65 73 -113 31 -47 57 -89 57 -92
0 -4 29 -49 64 -100 80 -117 124 -210 131 -278 3 -27 -28 -130 -47 -157 -9
-13 -21 -20 -27 -16 -15 8 -84 146 -104 206 -9 25 -46 106 -82 181 -54 108
-81 151 -137 211 -85 93 -176 147 -250 147 -29 0 -48 5 -48 11 0 7 -9 9 -21 6
-12 -3 -30 -1 -40 6 -14 9 -22 7 -38 -7 -11 -10 -40 -20 -63 -23 -42 -3 -156
-69 -203 -117 -63 -64 -151 -245 -215 -441 -12 -38 -25 -74 -28 -79 -3 -5 -18
23 -33 63 -15 40 -33 79 -40 87 -6 7 -9 20 -6 28 3 8 1 17 -6 20 -9 3 -9 7 -1
13 34 24 52 80 48 149 -1 38 -3 124 -3 190 0 104 -2 122 -17 128 -13 5 -14 9
-4 21 10 12 10 18 0 30 -9 11 -9 19 -2 28 13 16 11 69 -3 79 -6 4 -2 8 8 8 10
0 17 8 17 19 0 11 8 32 17 49 11 19 14 35 8 48 -4 10 -7 25 -6 32 1 6 -3 12
-9 12 -5 0 -10 -12 -10 -27 0 -20 -3 -24 -11 -16 -13 13 -16 95 -5 136 4 18 2
34 -5 43 -7 8 -12 58 -13 123 -2 95 0 112 16 125 20 18 23 32 7 41 -6 4 -16
-1 -23 -11 -9 -12 -15 -14 -20 -6 -4 7 -4 17 -1 22 3 6 1 10 -4 10 -6 0 -11 5
-11 10 0 6 9 10 20 10 24 0 28 35 5 44 -9 3 -15 0 -15 -10 0 -21 -23 -27 -51
-12 -82 45 -91 67 -26 65 55 -1 125 12 133 25 5 7 -2 9 -20 4 -39 -10 -32 6
29 66 52 53 54 56 39 77 -18 25 -12 40 9 22 8 -6 22 -9 30 -5 15 5 15 8 1 21
-19 20 -13 37 14 41 12 2 20 7 17 12 -3 5 -12 7 -20 4 -7 -3 -19 3 -26 15 -16
24 -39 11 -39 -22 0 -32 -11 -12 -12 22 -1 38 -24 41 -40 5 -9 -20 -9 -30 0
-45 9 -13 9 -25 3 -38 -13 -24 -133 -94 -198 -115 -95 -31 -299 -18 -348 23
-11 9 -28 28 -38 43 -14 22 -14 26 -2 22 8 -4 15 -2 15 4 0 25 -14 43 -46 58
-23 11 -41 32 -58 66 -22 45 -24 59 -21 156 4 147 14 174 95 253 59 58 77 70
147 93 l79 26 55 -19 c184 -63 286 -149 320 -271 7 -25 16 -49 21 -54 4 -6 8
-27 8 -48 0 -25 5 -41 15 -44 8 -4 15 -12 15 -19 0 -19 13 -25 38 -18 17 4 20
10 15 35 -5 27 -4 30 16 23 15 -5 21 -2 21 9 0 9 -7 16 -15 16 -19 0 -19 16 0
24 20 7 8 36 -15 36 -20 0 -37 18 -37 40 0 24 -82 159 -118 196 -18 18 -36 38
-39 46 -4 9 -8 9 -11 2 -6 -12 -75 50 -75 67 0 5 -11 9 -24 9 -13 0 -29 7 -36
15 -7 8 -20 15 -29 15 -9 0 -29 7 -46 16 -16 8 -38 13 -49 10 -11 -3 -26 0
-33 5 -9 8 -22 6 -45 -6 -18 -9 -45 -21 -60 -25 -38 -12 -158 -83 -191 -114
-16 -15 -33 -24 -38 -20 -5 3 -16 0 -24 -6 -12 -10 -16 -9 -21 4 -4 10 0 22
11 30 15 10 16 16 6 35 -9 15 -9 36 -2 76 18 94 50 141 164 233 95 75 112 82
216 82 96 0 95 0 177 -76 56 -53 103 -118 139 -189 16 -33 33 -62 36 -65 4 -3
9 -14 11 -25 2 -11 11 -19 20 -19 11 1 14 -5 10 -19 -4 -16 -1 -19 11 -14 13
5 15 0 12 -22 -4 -31 31 -71 60 -71 8 0 15 -6 16 -12 1 -14 32 -64 87 -143 17
-25 32 -52 32 -59 0 -7 9 -21 20 -31 25 -22 50 -72 50 -97 0 -11 6 -26 14 -34
8 -7 17 -19 20 -26 5 -10 7 -10 12 -1 4 9 11 10 25 3 16 -9 17 -14 8 -32 -9
-17 -8 -23 6 -30 9 -6 23 -25 31 -44 8 -19 20 -34 27 -34 14 0 38 50 42 88 1
15 6 35 10 45 5 12 3 17 -9 17 -10 0 -16 9 -16 25 0 14 -12 58 -26 98 -15 39
-32 95 -38 123 -6 28 -18 59 -26 69 -14 16 -22 85 -21 169 1 52 -35 76 -42 29
-3 -21 -4 -18 -6 12 -2 57 -11 85 -28 85 -8 0 -31 18 -50 40 -20 22 -42 40
-50 40 -7 0 -16 8 -20 18 -3 9 -26 37 -51 62 -25 24 -53 63 -63 85 -17 39 -61
95 -74 95 -4 0 -13 7 -22 15 -8 8 -18 13 -23 10 -4 -3 -11 2 -14 11 -3 8 -11
12 -17 8 -6 -3 -15 -1 -19 5 -10 17 -73 33 -152 38 -62 4 -68 6 -66 26 0 12
-5 57 -11 101 -9 56 -10 81 -2 89 18 18 13 27 -17 27 -15 0 -33 5 -40 12 -9 9
-15 9 -24 0 -7 -7 -29 -12 -50 -12 -39 0 -51 -13 -22 -24 9 -3 14 -12 11 -20
-3 -8 1 -13 10 -12 9 0 18 -5 20 -11 3 -7 -3 -13 -12 -13 -13 0 -11 -6 10 -34
16 -21 22 -37 16 -41 -15 -9 -14 -72 2 -79 6 -3 3 -4 -8 -3 -15 2 -19 -3 -17
-20 2 -13 0 -23 -5 -23 -4 0 -18 -3 -30 -6 -17 -5 -23 -2 -23 10 0 9 -4 24 -9
34 -15 26 -32 112 -26 123 4 5 2 9 -2 9 -5 0 -14 21 -20 48 -37 157 -57 192
-109 192 -34 0 -34 0 -34 -48 0 -26 6 -56 13 -67 16 -24 43 -143 34 -152 -4
-3 -9 3 -12 13 -16 51 -42 60 -37 14 1 -14 2 -35 2 -48 0 -13 4 -21 9 -18 5 3
11 -4 14 -17 2 -12 8 -31 12 -41 7 -15 5 -18 -7 -13 -10 3 -19 -1 -22 -10 -8
-19 -19 -10 -23 20 -9 61 -23 131 -44 217 -14 62 -23 134 -24 208 l-3 112 42
-1 c31 0 52 -9 86 -34 25 -19 63 -44 85 -56 22 -12 60 -36 85 -54 69 -50 188
-99 238 -99 24 1 42 -4 42 -10 0 -6 -9 -43 -20 -81 -26 -89 -25 -111 3 -139
12 -13 27 -32 33 -42 7 -11 20 -18 32 -16 11 2 23 -2 27 -8 3 -5 11 -10 17
-10 6 0 6 6 -2 15 -23 28 1 30 25 3 24 -28 45 -36 45 -19 0 5 -9 13 -20 16
-11 3 -20 12 -20 19 0 7 -16 20 -35 29 -19 9 -35 21 -35 26 0 5 -9 13 -21 16
-20 7 -20 8 9 38 17 18 42 58 56 90 14 31 32 60 40 63 8 3 56 55 108 116 193
230 227 263 261 252 9 -3 17 -2 17 3 0 8 52 43 64 43 3 0 6 -7 6 -16 0 -11 5
-14 16 -10 12 5 15 2 10 -10 -4 -12 -1 -14 14 -9 14 5 20 2 20 -9 0 -9 6 -16
14 -16 8 0 13 7 12 16 0 9 4 19 10 21 19 7 25 -27 9 -50 -24 -34 -17 -45 9
-13 19 22 23 37 19 65 -4 33 -3 35 11 17 14 -17 16 -17 32 -2 23 23 31 11 9
-14 -15 -17 -16 -20 -3 -20 14 0 37 23 89 88 6 7 14 10 19 7 13 -8 0 -35 -16
-35 -8 0 -14 -4 -14 -10 0 -5 6 -10 13 -10 16 0 60 68 52 80 -4 6 1 13 10 17
10 3 21 0 25 -8 5 -7 12 -10 17 -6 4 4 2 17 -5 27 -18 30 -15 39 16 37 24 -2
27 1 24 26 -2 18 2 27 11 27 8 0 20 7 27 15 11 13 8 15 -15 15 -16 0 -36 -6
-44 -14 -9 -8 -42 -27 -73 -44 -48 -24 -59 -27 -70 -15 -14 14 -58 23 -286 64
-75 14 -130 28 -128 34 2 5 13 9 25 8 11 -2 21 2 21 7 0 6 -12 10 -27 10 -54
0 -72 31 -20 35 12 1 74 7 137 13 153 16 195 18 260 15 30 -2 116 -5 190 -7z
m-647 -32 c10 -10 -24 -54 -42 -54 -20 1 -51 24 -51 38 0 6 17 13 38 15 20 2
40 4 43 5 3 1 8 -1 12 -4z m29 -56 c-6 -6 -15 -8 -19 -4 -4 4 -1 11 7 16 19
12 27 3 12 -12z m-337 -71 c144 -47 230 -109 223 -162 -2 -16 -11 -33 -20 -39
-13 -8 -21 -5 -38 17 -41 52 -124 45 -196 -17 -32 -27 -45 -51 -69 -122 -16
-48 -35 -89 -41 -91 -7 -2 -53 34 -103 81 -50 46 -104 93 -121 102 -16 10 -30
22 -30 27 0 14 101 112 177 173 80 63 107 67 218 31z m1768 -52 c-6 -18 23
-55 44 -55 48 0 201 -178 223 -261 10 -37 9 -40 -27 -79 -21 -22 -41 -40 -45
-40 -5 0 -8 13 -8 28 0 35 -33 80 -141 196 l-84 89 -55 0 c-75 1 -122 -22
-136 -69 -10 -32 -8 -42 18 -97 51 -106 140 -207 239 -272 116 -78 196 -81
291 -12 22 16 42 26 45 23 3 -3 17 4 31 14 27 21 52 26 52 10 0 -23 19 -8 22
18 2 20 9 28 28 30 14 2 31 8 37 14 19 16 165 89 169 85 5 -5 -17 -70 -27 -81
-6 -6 -13 -6 -20 1 -6 6 -18 9 -25 6 -19 -7 -75 -91 -64 -95 5 -2 7 -13 3 -26
-4 -17 -11 -22 -24 -19 -19 5 -22 0 -34 -61 -7 -36 -75 -218 -89 -240 -9 -15
-27 0 -61 51 -14 21 -20 25 -31 16 -9 -7 -14 -8 -14 -1 0 6 4 12 8 14 12 5 64
120 69 156 3 18 10 35 14 38 14 8 10 24 -6 24 -8 0 -15 7 -15 15 0 8 -4 15 -9
15 -17 0 -71 -157 -71 -206 0 -25 -3 -44 -7 -42 -5 2 -27 13 -51 24 -38 17
-42 22 -36 46 5 24 2 28 -33 37 -21 6 -45 11 -53 11 -25 0 -131 74 -195 137
-122 117 -187 218 -216 332 l-13 54 44 38 c25 22 50 39 56 39 6 0 21 12 35 26
57 62 180 114 162 69z m-1053 -70 c10 -12 9 -15 -4 -15 -10 0 -15 -4 -12 -8 3
-6 -28 -8 -53 -3 -2 1 4 10 14 21 22 24 38 25 55 5z m48 -5 c12 0 13 -3 5 -11
-14 -14 -33 -3 -32 19 0 11 3 12 6 5 2 -7 12 -13 21 -13z m-1472 -427 c0 -38
4 -92 9 -120 5 -38 5 -53 -4 -53 -6 0 -11 10 -12 23 -1 39 -10 81 -19 92 -5 6
-5 28 0 50 5 22 9 41 10 43 0 1 0 9 0 17 0 8 3 15 8 15 4 0 7 -30 8 -67z m474
-93 c0 -11 -4 -20 -9 -20 -5 0 -7 9 -4 20 3 11 7 20 9 20 2 0 4 -9 4 -20z
m2653 -81 c-5 -5 -8 4 -7 19 4 51 7 57 11 23 3 -18 1 -37 -4 -42z m146 -51
c-7 -24 -12 -47 -11 -51 2 -5 -3 -25 -9 -45 -6 -20 -13 -66 -15 -101 -2 -35
-7 -67 -12 -70 -5 -3 -13 -31 -17 -60 -6 -43 -14 -62 -39 -85 l-31 -31 -3 24
c-4 26 20 113 48 177 10 22 36 102 57 178 21 75 39 130 41 122 2 -8 -2 -34 -9
-58z m-139 28 c0 -3 -4 -8 -10 -11 -5 -3 -10 -1 -10 4 0 6 5 11 10 11 6 0 10
-2 10 -4z m-2914 -53 c-10 -10 -19 5 -10 18 6 11 8 11 12 0 2 -7 1 -15 -2 -18z
m-309 -50 c-4 -17 -4 -17 -12 0 -4 9 -4 25 0 35 8 16 8 16 12 0 3 -10 3 -26 0
-35z m799 10 c-10 -10 -19 5 -10 18 6 11 8 11 12 0 2 -7 1 -15 -2 -18z m-466
13 c0 -3 -4 -8 -10 -11 -5 -3 -10 -1 -10 4 0 6 5 11 10 11 6 0 10 -2 10 -4z
m7 -48 c-3 -8 -6 -5 -6 6 -1 11 2 17 5 13 3 -3 4 -12 1 -19z m253 -4 c0 -8 -4
-12 -10 -9 -5 3 -10 10 -10 16 0 5 5 9 10 9 6 0 10 -7 10 -16z m-330 -44 c0
-5 -2 -10 -4 -10 -3 0 -8 5 -11 10 -3 6 -1 10 4 10 6 0 11 -4 11 -10z m110 0
c0 -5 -4 -10 -9 -10 -6 0 -13 5 -16 10 -3 6 1 10 9 10 9 0 16 -4 16 -10z
m2770 6 c0 -3 -4 -8 -10 -11 -5 -3 -10 -1 -10 4 0 6 5 11 10 11 6 0 10 -2 10
-4z m360 -15 c0 -11 -4 -23 -10 -26 -6 -4 -10 5 -10 19 0 14 5 26 10 26 6 0
10 -9 10 -19z m-3170 -21 c0 -5 -2 -10 -4 -10 -3 0 -8 5 -11 10 -3 6 -1 10 4
10 6 0 11 -4 11 -10z m-50 -10 c0 -5 -5 -10 -11 -10 -5 0 -7 5 -4 10 3 6 8 10
11 10 2 0 4 -4 4 -10z m2389 -24 c47 -14 95 -35 110 -49 14 -13 42 -31 61 -40
101 -46 199 -220 176 -312 -8 -30 -28 -23 -25 8 3 44 0 49 -24 43 -18 -4 -29
1 -45 24 -12 16 -19 35 -16 43 6 16 -23 44 -34 32 -4 -4 -1 -10 6 -12 6 -3 10
-9 6 -14 -8 -14 -24 0 -24 22 0 15 -5 19 -18 15 -10 -4 -27 1 -38 9 -10 8 -35
15 -55 15 -21 0 -47 9 -63 21 -20 16 -30 19 -39 10 -8 -8 -8 -11 1 -11 7 0 12
-4 12 -10 0 -5 -7 -10 -15 -10 -8 0 -15 4 -15 9 0 15 -51 23 -67 9 -8 -6 -31
-13 -51 -13 -84 -4 -153 -35 -219 -98 -35 -34 -63 -65 -63 -70 0 -5 -23 -30
-51 -56 -28 -25 -59 -65 -70 -89 -11 -24 -26 -46 -34 -49 -8 -3 -15 -16 -15
-30 0 -16 -7 -27 -18 -30 -10 -2 -27 -24 -38 -49 -10 -24 -24 -44 -30 -44 -20
0 -22 46 -3 69 10 12 16 28 13 35 -3 7 2 26 11 42 8 16 15 36 15 44 0 14 128
278 140 290 3 3 25 36 49 73 115 178 264 233 470 173z m-2664 -14 c32 -13 65
-60 65 -93 0 -18 -2 -19 -28 -5 -33 17 -82 77 -82 101 0 9 3 15 8 13 4 -3 21
-10 37 -16z m3476 -63 c0 -55 -12 -91 -25 -78 -2 2 1 36 7 76 6 40 13 70 15
68 2 -2 4 -32 3 -66z m-4284 -85 c-3 -3 -12 -4 -19 -1 -8 3 -5 6 6 6 11 1 17
-2 13 -5z m704 -31 c-8 -15 -10 -15 -11 -2 0 17 10 32 18 25 2 -3 -1 -13 -7
-23z m123 -23 c14 -11 18 -80 6 -80 -4 0 -17 11 -30 25 -13 14 -31 25 -41 25
-28 0 -44 27 -31 55 l11 23 36 -18 c20 -10 42 -23 49 -30z m-569 -18 c-3 -3
-11 0 -18 7 -9 10 -8 11 6 5 10 -3 15 -9 12 -12z m124 -23 c24 -11 50 -19 57
-19 8 0 14 -4 14 -9 0 -12 71 -46 88 -42 8 1 21 -4 30 -12 10 -8 27 -18 39
-21 12 -4 35 -19 51 -34 16 -15 46 -35 68 -45 21 -10 78 -44 126 -75 l87 -57
1 -53 c0 -53 -3 -56 -35 -30 -28 22 -215 174 -245 199 -19 16 -50 36 -68 44
-18 9 -39 27 -48 41 -9 13 -22 24 -29 24 -7 0 -38 14 -69 30 -31 17 -81 40
-111 51 -30 11 -57 24 -60 29 -8 14 52 1 104 -21z m4221 -29 c48 -12 97 -34
255 -113 188 -94 240 -122 288 -156 26 -19 56 -35 66 -36 10 -1 39 -18 63 -38
25 -20 49 -37 54 -37 14 0 43 -53 59 -107 18 -63 18 -202 -1 -238 -8 -15 -14
-43 -14 -62 0 -40 -63 -122 -159 -208 -93 -84 -131 -102 -131 -64 0 11 -4 18
-10 14 -5 -3 -6 -13 -3 -22 7 -18 -21 -43 -48 -43 -10 0 -29 -11 -42 -24 -14
-14 -43 -30 -65 -36 -23 -6 -48 -17 -56 -25 -8 -8 -21 -15 -30 -15 -8 0 -17
-4 -21 -9 -3 -6 -38 -20 -78 -32 -39 -12 -80 -29 -89 -36 -27 -24 -157 -60
-239 -68 -84 -7 -201 12 -263 43 -29 14 -36 23 -36 47 0 17 -3 41 -7 54 -5 18
-3 22 7 16 7 -4 15 -3 19 4 5 7 24 -5 55 -33 28 -26 53 -43 62 -39 8 3 14 -1
14 -8 0 -19 155 -17 190 1 41 22 158 48 169 37 6 -6 20 0 38 17 15 14 34 24
41 21 21 -8 87 31 116 69 15 20 36 36 46 36 10 0 22 4 25 10 3 5 23 17 43 27
20 9 49 25 64 35 14 10 30 18 35 18 6 0 29 18 52 40 24 23 61 52 82 66 22 14
42 31 45 39 3 8 17 21 31 30 24 16 25 16 19 -3 -5 -16 -2 -19 19 -19 15 0 25
5 25 14 0 9 -5 11 -12 7 -9 -5 -9 -2 1 9 12 15 11 17 -5 17 -18 1 -18 1 -1 14
9 7 17 20 17 27 0 8 9 22 20 32 18 15 20 27 17 113 -1 52 1 98 5 100 4 3 8 9
8 14 0 16 -68 80 -84 80 -9 0 -25 5 -36 10 -11 5 -29 14 -40 20 -11 6 -31 10
-44 10 -14 0 -27 4 -31 10 -3 5 -12 7 -20 3 -9 -3 -22 0 -29 6 -11 10 -17 8
-24 -6 -9 -16 -16 -16 -89 -4 -120 21 -167 23 -353 12 -139 -8 -175 -13 -191
-27 -10 -9 -19 -21 -19 -26 0 -6 -9 -21 -20 -35 -11 -14 -20 -34 -20 -43 0
-20 -40 -103 -52 -108 -5 -2 -8 -9 -8 -16 0 -21 -107 -116 -130 -116 -11 0
-29 -6 -40 -12 -14 -9 -22 -10 -31 -1 -8 8 -22 6 -52 -7 -33 -14 -55 -16 -102
-10 -33 4 -63 6 -67 3 -12 -6 -20 17 -10 30 5 7 12 26 16 42 4 17 15 41 24 55
9 14 18 34 19 45 1 11 8 52 16 90 8 39 18 95 21 125 7 59 23 95 33 73 3 -9 15
-3 35 17 22 23 36 29 52 24 18 -6 19 -5 8 9 -14 17 0 33 18 22 6 -4 17 -1 25
5 8 7 24 10 35 7 15 -4 20 0 20 14 0 10 6 19 13 19 8 0 22 9 32 20 10 11 25
20 33 20 8 0 42 23 77 50 68 54 82 59 87 33 3 -14 7 -12 19 10 16 30 83 68
109 62 8 -2 35 -9 60 -15z m-2490 -205 c0 -23 -3 -27 -10 -15 -5 8 -10 29 -10
45 0 23 3 27 10 15 5 -8 10 -28 10 -45z m-2090 39 c0 -13 -64 -94 -79 -99 -9
-2 -22 -19 -30 -37 -31 -69 -66 -118 -85 -118 -20 0 -20 0 0 -14 19 -15 18
-16 -8 -68 -25 -47 -27 -62 -25 -138 4 -106 30 -198 68 -239 16 -18 29 -36 29
-42 0 -5 31 -31 69 -59 38 -28 72 -57 75 -66 3 -8 10 -13 15 -10 5 3 22 -1 37
-9 16 -8 35 -15 42 -15 7 0 25 -18 40 -40 15 -21 31 -39 36 -40 13 0 95 -52
121 -76 12 -11 26 -19 32 -17 14 5 85 -65 78 -77 -8 -13 -52 -13 -60 1 -4 5
-32 21 -63 35 -58 26 -142 75 -177 104 -11 9 -36 23 -55 30 -19 8 -66 36 -105
63 -38 26 -87 59 -108 73 -21 14 -46 38 -55 55 -10 16 -20 29 -24 29 -12 0
-45 63 -66 125 -22 66 -36 201 -22 210 5 3 6 15 1 27 -9 24 -3 68 9 68 5 0 11
14 15 30 12 54 72 143 146 217 39 39 77 69 83 67 7 -3 21 4 31 16 17 19 35 26
35 14z m2950 -99 c-7 -8 -16 -15 -21 -15 -5 0 -6 7 -3 15 4 8 13 15 21 15 13
0 13 -3 3 -15z m800 -127 c-1 -29 -7 -64 -16 -78 -13 -22 -14 -22 -9 -3 3 11
6 46 6 77 1 31 5 56 10 56 5 0 9 -24 9 -52z m-897 27 c-3 -9 -8 -14 -10 -11
-3 3 -2 9 2 15 9 16 15 13 8 -4z m-2262 -62 c16 -10 29 -23 29 -30 0 -7 5 -22
12 -33 7 -10 10 -22 6 -25 -12 -12 -52 -14 -60 -2 -6 9 -10 9 -17 -2 -7 -10
-5 -18 6 -26 9 -7 13 -17 9 -24 -5 -7 -9 -37 -10 -68 -1 -46 2 -57 19 -65 35
-18 64 -50 58 -64 -10 -26 45 -38 195 -42 l54 -2 -4 -67 c-3 -54 -7 -69 -21
-71 -10 -2 -17 3 -17 12 0 20 -10 20 -24 0 -10 -14 -14 -14 -41 0 -17 9 -37
16 -46 16 -9 0 -22 7 -29 15 -7 9 -21 13 -31 10 -9 -3 -20 -1 -24 5 -4 6 -31
22 -60 35 -29 13 -61 35 -70 49 -9 14 -32 34 -51 45 -37 22 -80 100 -91 164
-5 35 23 154 34 143 4 -3 13 0 22 8 17 15 72 34 104 35 11 1 32 -7 48 -16z
m361 -85 c-9 -9 -12 -7 -12 12 0 19 3 21 12 12 9 -9 9 -15 0 -24z m-5 -40 c-3
-8 -6 -5 -6 6 -1 11 2 17 5 13 3 -3 4 -12 1 -19z m2858 -185 c-26 -18 -32 -7
-9 18 12 14 20 17 23 8 2 -7 -4 -18 -14 -26z m-2838 -55 c-3 -8 -6 -5 -6 6 -1
11 2 17 5 13 3 -3 4 -12 1 -19z m2632 -39 c-25 -19 -49 -25 -49 -11 0 11 54
40 64 34 5 -3 -2 -13 -15 -23z m-81 -26 c-10 -2 -18 -8 -18 -13 0 -4 -11 -10
-25 -12 -13 -3 -22 -1 -19 4 8 12 44 27 64 26 10 0 9 -2 -2 -5z m-2284 -135
c15 -16 28 -19 63 -15 24 2 46 0 49 -5 4 -5 36 -8 73 -7 52 2 76 -2 110 -19
25 -12 51 -22 59 -22 9 0 12 -6 8 -15 -3 -8 4 -31 15 -51 11 -20 17 -43 15
-52 -3 -10 -8 -52 -10 -96 -4 -59 -2 -76 7 -67 20 20 27 12 27 -34 0 -33 -4
-45 -14 -45 -13 0 -13 -5 0 -35 8 -21 12 -46 8 -62 -5 -20 -4 -24 6 -18 10 6
12 1 7 -23 -4 -19 -2 -32 3 -32 6 0 10 -9 10 -21 0 -11 -4 -17 -10 -14 -5 3
-10 -1 -10 -9 0 -9 6 -13 13 -10 8 3 14 -1 14 -8 0 -7 3 -56 7 -108 5 -62 4
-91 -2 -85 -12 12 -32 104 -32 146 0 18 -4 28 -10 24 -5 -3 -10 3 -10 14 0 11
-4 22 -9 25 -5 3 -12 27 -16 52 -4 26 -10 54 -15 63 -12 23 -40 121 -40 139 0
21 -20 79 -45 126 -18 36 -67 68 -81 53 -3 -3 5 -25 19 -49 13 -24 27 -57 30
-73 3 -17 12 -55 21 -85 15 -51 15 -56 -2 -68 -15 -11 -15 -14 -2 -22 8 -5 21
-10 28 -10 6 0 12 -11 12 -25 0 -13 6 -28 13 -32 20 -13 34 -46 42 -101 4 -29
13 -58 20 -65 7 -7 16 -31 19 -53 4 -23 14 -53 22 -69 8 -15 12 -36 9 -46 -3
-9 -1 -20 5 -24 5 -3 10 -16 10 -29 0 -12 6 -28 13 -35 8 -8 11 -37 10 -87 -2
-43 1 -74 7 -74 6 0 10 11 10 24 0 14 5 28 12 32 8 5 9 -4 4 -32 -4 -21 -10
-65 -13 -96 -3 -32 -9 -58 -13 -58 -6 0 -100 190 -100 203 0 3 -15 38 -34 79
-18 40 -53 116 -76 168 -23 52 -53 118 -66 146 -13 28 -24 55 -24 60 0 16 -53
137 -82 187 -15 26 -28 61 -28 78 0 17 -6 32 -15 35 -8 4 -15 14 -15 23 0 9
-13 41 -28 71 -16 30 -37 92 -47 138 -12 51 -24 82 -32 82 -7 0 -13 -7 -13
-16 0 -8 -4 -12 -10 -9 -5 3 -10 19 -10 35 0 16 -4 32 -10 35 -5 3 -10 17 -10
31 l0 25 58 -32 c31 -17 66 -41 76 -51z m2246 63 c0 -4 13 -14 29 -24 16 -9
40 -39 54 -66 23 -44 25 -54 17 -107 -8 -53 -61 -198 -78 -216 -4 -4 -8 35 -9
87 -2 88 -19 154 -41 156 -4 0 -23 2 -43 5 -53 6 -73 -28 -69 -116 5 -104 4
-166 -4 -300 -15 -269 -41 -389 -71 -339 -7 10 -17 147 -20 279 -3 109 -26
294 -40 320 -17 33 -6 129 22 190 23 51 98 140 118 140 7 0 18 -7 25 -15 18
-21 57 -19 70 5 9 17 40 19 40 1z m361 -152 c-20 -86 -34 -114 -61 -129 -17
-9 -18 -14 -8 -30 10 -16 9 -23 -10 -43 -12 -13 -22 -28 -22 -33 0 -20 -63
-160 -81 -180 -23 -24 -25 -42 -4 -24 26 22 18 -24 -9 -49 -13 -12 -26 -39
-30 -59 -3 -20 -13 -50 -21 -66 -8 -15 -15 -39 -15 -52 0 -14 -10 -30 -25 -40
-14 -9 -25 -24 -25 -34 0 -10 -7 -23 -15 -30 -8 -7 -15 -23 -15 -36 0 -13 -3
-24 -8 -24 -4 0 -16 -28 -26 -62 -11 -35 -28 -78 -38 -97 -11 -19 -28 -64 -40
-100 -11 -36 -26 -84 -34 -106 -8 -23 -14 -48 -14 -56 0 -9 -11 -38 -25 -65
-14 -27 -25 -60 -25 -74 0 -14 -11 -47 -25 -75 -13 -27 -25 -58 -25 -68 0 -10
-9 -36 -20 -58 -12 -22 -25 -66 -31 -97 -12 -67 -28 -112 -40 -112 -5 0 -9 -8
-9 -19 0 -18 -69 -244 -95 -311 -7 -19 -21 -57 -31 -83 -25 -69 -67 -83 -45
-15 6 18 12 56 14 83 4 51 21 95 36 95 4 0 18 35 30 78 12 42 31 105 41 140
11 34 20 72 20 85 0 12 16 67 36 122 19 55 42 126 50 158 8 32 25 82 38 111
13 29 38 104 55 167 18 62 38 119 46 125 8 6 10 15 5 24 -5 8 -3 19 6 27 8 8
14 26 14 41 1 31 36 143 48 152 5 3 26 46 47 95 21 50 42 97 46 105 18 31 87
186 94 210 4 14 36 81 71 151 35 69 64 131 64 137 0 7 4 20 9 30 5 9 19 44 31
77 12 33 28 75 36 93 14 32 14 32 33 13 18 -18 18 -21 2 -92z m1139 91 c0 -5
-4 -10 -10 -10 -5 0 -10 5 -10 10 0 6 5 10 10 10 6 0 10 -4 10 -10z m-2180
-14 c0 -3 -4 -8 -10 -11 -5 -3 -10 -1 -10 4 0 6 5 11 10 11 6 0 10 -2 10 -4z
m-1956 -149 c11 -23 25 -55 33 -71 16 -37 16 -44 -1 -62 -18 -18 -26 -18 -26
-1 0 8 -11 41 -25 75 -14 34 -25 71 -25 82 0 34 24 22 44 -23z m4386 -75 c0
-8 -53 -42 -66 -42 -5 0 7 11 26 25 40 28 40 28 40 17z m-4318 -117 c6 -14 15
-25 20 -25 4 0 8 -9 8 -20 0 -12 7 -20 16 -20 14 0 14 -3 4 -15 -10 -12 -10
-19 -2 -27 7 -7 12 -23 12 -37 0 -15 6 -37 13 -51 7 -14 25 -65 41 -115 15
-49 34 -102 42 -117 8 -14 14 -37 14 -51 0 -14 6 -27 14 -30 8 -3 17 -24 21
-46 4 -23 11 -43 16 -47 5 -3 9 -14 9 -25 0 -10 7 -19 15 -19 8 0 15 -7 15
-16 0 -8 7 -22 15 -30 17 -17 20 -50 6 -59 -12 -7 -54 52 -47 64 4 5 1 11 -5
13 -6 2 -23 40 -38 83 -15 44 -38 103 -52 130 -14 28 -34 75 -45 105 -10 30
-26 66 -36 79 -10 13 -18 32 -18 42 0 10 -9 38 -19 61 -11 24 -27 70 -36 103
-10 33 -21 68 -26 78 -7 13 -5 17 11 17 12 0 25 -10 32 -25z m834 -242 c-10
-10 -19 5 -10 18 6 11 8 11 12 0 2 -7 1 -15 -2 -18z m2304 13 c0 -3 -4 -8 -10
-11 -5 -3 -10 -1 -10 4 0 6 5 11 10 11 6 0 10 -2 10 -4z m45 -36 c3 -5 -3 -10
-14 -10 -12 0 -21 5 -21 10 0 6 6 10 14 10 8 0 18 -4 21 -10z m-1285 -41 c0
-6 -4 -7 -10 -4 -5 3 -10 11 -10 16 0 6 5 7 10 4 6 -3 10 -11 10 -16z m1405 1
c3 -5 1 -10 -4 -10 -6 0 -11 5 -11 10 0 6 2 10 4 10 3 0 8 -4 11 -10z m-3045
-256 c0 -8 -5 -12 -10 -9 -6 4 -8 11 -5 16 9 14 15 11 15 -7z m30 -55 c0 -6
-4 -7 -10 -4 -5 3 -10 11 -10 16 0 6 5 7 10 4 6 -3 10 -11 10 -16z m527 -15
c-9 -9 -28 6 -21 18 4 6 10 6 17 -1 6 -6 8 -13 4 -17z m701 -39 c32 -7 81 -23
110 -34 30 -11 61 -17 70 -14 13 4 14 3 3 -5 -11 -8 -1 -22 45 -66 59 -56 87
-70 40 -20 -33 37 -24 45 11 10 15 -15 28 -38 28 -50 1 -12 5 -27 9 -34 12
-19 -3 -33 -30 -26 -19 5 -24 2 -24 -14 0 -15 -5 -19 -20 -15 -14 4 -19 11
-15 23 7 21 -13 40 -40 38 -11 -1 -39 2 -62 6 -30 5 -43 4 -43 -4 0 -7 -5 -8
-16 -2 -17 9 -106 0 -193 -19 -66 -16 -129 -74 -156 -146 -10 -26 -24 -55 -32
-64 -7 -9 -11 -23 -7 -32 3 -10 -2 -20 -16 -27 -11 -6 -18 -15 -15 -20 6 -9
-16 -110 -41 -191 -8 -26 -14 -56 -14 -66 0 -11 -26 -60 -58 -109 -32 -49 -65
-105 -72 -124 -7 -19 -22 -44 -32 -56 -23 -26 -23 -41 2 -54 17 -9 18 -15 9
-31 -5 -11 -9 -29 -7 -41 3 -18 6 -16 30 17 l26 37 -1 -43 c-2 -40 -5 -45 -32
-54 -17 -5 -44 -20 -59 -32 -16 -13 -32 -23 -37 -23 -5 0 -15 -12 -23 -27 -15
-28 -15 -28 -16 24 0 28 -5 55 -11 59 -8 4 -8 9 0 17 7 7 7 14 0 24 -9 9 -8
17 1 28 9 10 9 19 2 28 -6 6 -12 39 -14 73 -3 33 -7 65 -11 70 -3 6 -4 24 -3
40 2 16 -2 38 -9 49 -7 11 -16 45 -19 75 -4 30 -13 69 -21 85 -8 17 -26 56
-41 89 -15 32 -27 65 -27 75 0 9 -24 67 -53 129 -30 62 -57 124 -60 137 -3 13
-12 29 -20 36 -8 6 -14 18 -14 27 0 29 49 -29 80 -94 16 -34 34 -65 39 -68 5
-4 12 -19 16 -36 3 -16 26 -64 51 -107 24 -43 54 -99 66 -125 24 -54 54 -70
76 -42 18 24 77 149 153 324 33 74 76 160 97 190 57 84 162 189 203 203 51 17
133 18 197 2z m-1204 -132 c9 -18 13 -33 8 -33 -9 0 -32 44 -32 62 0 15 4 10
24 -29z m36 27 c0 -5 -2 -10 -4 -10 -3 0 -8 5 -11 10 -3 6 -1 10 4 10 6 0 11
-4 11 -10z m15 -145 c28 -61 29 -65 17 -65 -10 0 -52 85 -52 105 0 27 9 16 35
-40z m1276 -46 c63 -20 142 -63 146 -79 3 -9 16 -24 31 -33 15 -8 52 -41 82
-72 l55 -57 -42 21 c-23 11 -44 25 -48 31 -3 5 -16 10 -29 10 -12 0 -26 4 -31
9 -10 8 -71 27 -165 51 -53 13 -163 -1 -189 -23 -9 -8 -27 -18 -41 -22 -14 -3
-53 -18 -86 -32 -94 -38 -104 -25 -46 62 54 80 97 109 194 130 79 17 125 18
169 4z m-1201 -68 c10 -19 15 -119 5 -110 -2 3 -7 22 -9 42 -3 20 -10 45 -16
56 -13 24 -13 31 0 31 5 0 14 -9 20 -19z m38 -138 c5 -10 7 -24 5 -31 -3 -7 2
-21 10 -30 8 -9 17 -35 20 -56 4 -22 10 -42 15 -45 5 -3 12 -15 16 -26 5 -13
10 -15 13 -7 8 21 23 13 23 -13 0 -14 -4 -25 -9 -25 -9 0 -8 -22 5 -102 4 -22
2 -38 -4 -38 -5 0 -12 19 -15 43 -8 60 -12 75 -20 83 -4 4 -7 18 -7 30 0 13
-4 25 -9 29 -5 3 -13 20 -16 38 -4 17 -15 43 -25 57 -9 14 -20 44 -23 68 -5
43 5 56 21 25z m1263 -29 c8 -8 23 -14 32 -14 9 0 19 -5 23 -11 3 -6 36 -30
73 -54 80 -52 161 -127 161 -149 0 -17 25 -22 34 -7 9 14 71 5 71 -10 0 -8 -5
-14 -12 -14 -6 0 -15 -3 -19 -7 -4 -5 0 -8 9 -8 22 0 22 -28 0 -52 -19 -21
-39 -23 -46 -5 -6 16 -112 97 -174 134 -55 32 -216 72 -297 74 -34 1 -109 -4
-167 -11 -97 -12 -107 -12 -132 5 -15 10 -26 23 -24 29 9 26 163 100 252 120
33 8 202 -8 216 -20z m-491 2 c0 -11 -19 -15 -25 -6 -3 5 1 10 9 10 9 0 16 -2
16 -4z m-870 -217 c0 -5 -4 -9 -10 -9 -5 0 -10 7 -10 16 0 8 5 12 10 9 6 -3
10 -10 10 -16z m1317 -20 c132 -20 285 -106 254 -142 -10 -13 -7 -15 20 -14
35 2 51 -18 22 -26 -16 -4 -15 -6 4 -12 13 -4 20 -11 17 -17 -3 -5 0 -15 6
-23 7 -8 9 -15 4 -15 -5 0 -1 -5 9 -11 9 -6 15 -14 12 -19 -8 -13 -75 55 -75
75 0 8 -9 15 -19 15 -10 0 -21 6 -24 13 -17 44 -515 90 -621 58 -17 -6 -58
-15 -91 -21 -33 -7 -80 -23 -104 -36 -24 -13 -46 -22 -48 -20 -3 3 15 24 39
48 30 30 72 56 144 86 177 77 271 89 451 61z m-1268 -138 c-3 -6 -10 -7 -18
-2 -7 5 -10 14 -6 21 9 14 29 -2 24 -19z m185 -22 c5 -19 8 -54 8 -77 -1 -36
1 -42 12 -33 11 9 15 6 20 -14 4 -14 4 -29 2 -34 -3 -4 2 -33 10 -65 16 -61
12 -85 -12 -65 -8 6 -14 26 -14 44 0 18 -11 63 -25 100 -29 76 -43 189 -23
183 7 -3 17 -20 22 -39z m1516 21 c0 -5 -7 -10 -15 -10 -8 0 -15 5 -15 10 0 6
7 10 15 10 8 0 15 -4 15 -10z m-535 -55 c44 -4 112 -16 150 -27 39 -12 85 -21
103 -21 31 1 33 -1 27 -24 -5 -21 -3 -24 13 -19 27 9 66 -40 68 -86 2 -45 -17
-51 -59 -18 -14 11 -32 17 -41 14 -8 -3 -28 1 -43 9 -90 48 -248 65 -440 49
-73 -6 -110 -14 -130 -28 -15 -10 -32 -19 -38 -20 -5 0 -17 -4 -25 -7 -49 -20
-126 -47 -135 -47 -16 0 -5 87 13 103 51 44 166 90 274 108 61 11 114 22 117
25 3 3 19 3 36 0 16 -3 66 -8 110 -11z m468 -35 c3 -11 1 -23 -4 -26 -5 -3 -9
2 -9 10 0 9 -4 16 -10 16 -5 0 -10 5 -10 10 0 19 28 10 33 -10z m-73 -160 c0
-11 -4 -20 -9 -20 -5 0 -7 9 -4 20 3 11 7 20 9 20 2 0 4 -9 4 -20z m-384 -18
c4 6 22 7 43 3 55 -10 220 -66 234 -79 20 -19 125 -76 141 -76 16 0 31 -18 23
-26 -6 -6 -139 16 -152 26 -13 9 -95 29 -115 28 -8 -1 -47 5 -87 11 -40 7 -76
10 -81 7 -5 -3 -65 -6 -133 -7 -89 -2 -130 -6 -146 -17 -21 -13 -27 -10 -24
11 1 10 -13 9 -24 -2 -6 -5 -51 -23 -101 -39 -93 -31 -201 -84 -262 -130 -39
-28 -107 -36 -107 -12 0 8 9 16 20 18 11 2 25 10 31 18 31 39 276 174 341 189
18 3 36 12 40 20 5 7 31 15 58 19 77 9 119 18 132 29 7 5 19 7 27 4 8 -3 27
-2 43 2 15 4 43 4 61 0 18 -4 35 -3 38 3z m131 -251 c23 -4 53 -16 67 -25 14
-9 34 -16 44 -16 10 0 27 -6 37 -14 16 -11 17 -17 7 -29 -10 -12 -54 -15 -265
-15 -154 0 -263 -5 -280 -11 -16 -6 -33 -9 -37 -6 -9 6 -14 4 -78 -28 -19 -9
-39 -17 -45 -17 -7 0 -37 -12 -67 -26 l-55 -26 38 -12 c38 -11 49 -33 14 -28
-14 1 -17 -3 -12 -17 3 -12 0 -21 -10 -25 -17 -6 -21 -36 -5 -36 6 0 10 -7 10
-15 0 -22 8 -19 49 23 40 40 130 89 190 103 215 52 401 54 534 7 29 -11 36
-32 12 -42 -8 -3 -15 -12 -15 -19 0 -23 -29 -42 -42 -29 -19 19 -267 15 -368
-5 -47 -9 -105 -15 -130 -14 -81 3 -150 -9 -143 -25 3 -8 0 -14 -6 -14 -6 0
-11 7 -11 15 0 8 -4 15 -10 15 -5 0 -10 -4 -10 -9 0 -5 -3 -16 -6 -25 -4 -11
2 -17 21 -22 22 -5 26 -11 23 -35 -2 -19 5 -34 22 -49 14 -12 25 -29 25 -38 0
-9 11 -22 24 -29 19 -9 25 -20 25 -44 1 -32 26 -56 26 -25 0 9 5 16 10 16 6 0
10 -7 10 -15 0 -8 4 -15 10 -15 5 0 7 -13 4 -30 -4 -19 -2 -30 5 -30 6 0 11
-11 11 -24 0 -14 5 -28 10 -31 6 -3 7 -17 4 -31 -4 -14 -2 -24 4 -24 6 0 18
-15 27 -34 9 -19 28 -42 41 -51 21 -13 24 -21 19 -48 -5 -27 -1 -37 23 -60 25
-25 30 -26 42 -12 17 21 30 19 30 -5 0 -17 3 -18 23 -9 21 9 66 69 53 69 -3 0
6 16 19 36 14 20 25 45 25 55 0 10 4 20 9 23 4 3 11 24 15 46 3 22 11 40 16
40 13 0 13 57 0 65 -5 3 -10 15 -10 26 0 11 4 18 8 15 5 -3 24 10 42 29 19 19
29 35 22 35 -7 0 -12 -4 -12 -10 0 -5 -7 -10 -15 -10 -21 0 -20 3 28 54 48 52
61 58 47 20 -20 -51 14 -19 43 42 16 32 33 61 38 62 11 4 12 32 1 32 -4 0 -13
-5 -19 -11 -8 -8 -13 -8 -17 0 -7 11 40 36 58 32 13 -3 46 30 40 41 -3 5 -15
6 -26 2 -15 -4 -19 -2 -14 7 3 8 9 22 12 32 8 22 24 22 24 0 0 -13 3 -14 11
-6 9 9 7 16 -5 29 -16 15 -16 18 3 35 11 11 29 19 39 19 16 0 19 7 19 40 0 22
3 44 7 48 12 12 95 -40 129 -80 17 -22 53 -61 79 -86 67 -67 85 -152 69 -332
-20 -225 -67 -351 -182 -486 -39 -46 -87 -93 -107 -106 -20 -12 -55 -37 -78
-55 -23 -18 -44 -33 -48 -33 -3 0 -23 -11 -44 -25 -20 -13 -62 -31 -92 -39
-30 -8 -75 -21 -99 -30 -49 -18 -200 -21 -266 -6 -22 5 -65 15 -95 21 -30 6
-63 15 -72 20 -9 4 -42 17 -73 28 -30 11 -69 30 -85 43 -16 13 -44 34 -62 47
-53 39 -135 139 -163 197 -14 30 -40 78 -56 106 -38 64 -57 163 -70 361 -8
140 -8 151 12 198 12 27 27 49 35 49 7 0 33 20 57 45 25 25 50 45 55 45 6 0
28 16 49 35 24 22 41 31 47 25 15 -15 23 -12 29 10 3 11 12 20 20 20 8 0 17 6
20 14 13 32 247 114 347 121 27 1 54 7 61 11 7 4 43 10 79 13 62 6 100 2 197
-18z m271 -99 c10 -7 10 -15 2 -36 -6 -17 -14 -24 -22 -20 -7 5 -9 2 -5 -8 5
-15 -9 -38 -24 -38 -4 0 -10 15 -13 34 -4 19 -12 36 -19 39 -9 3 -9 8 2 20 14
18 57 22 79 9z m-253 -268 c14 -6 13 -9 -6 -30 -20 -21 -20 -24 -5 -30 10 -4
25 1 36 11 25 23 32 16 24 -23 -7 -32 -24 -45 -24 -17 0 8 -2 15 -5 15 -14 0
-95 -89 -95 -104 0 -21 -7 -20 -36 3 -13 10 -49 22 -79 26 -51 6 -59 4 -90
-19 -39 -30 -73 -34 -82 -8 -15 41 -45 73 -64 67 -13 -4 -19 -2 -19 9 0 22 29
46 56 46 14 0 35 6 47 14 43 28 296 57 342 40z m-440 -154 c-3 -5 -11 -10 -16
-10 -6 0 -7 5 -4 10 3 6 11 10 16 10 6 0 7 -4 4 -10z m245 -50 c0 -5 -4 -10
-10 -10 -5 0 -10 5 -10 10 0 6 5 10 10 10 6 0 10 -4 10 -10z m160 -34 c0 -11
-19 -15 -25 -6 -3 5 1 10 9 10 9 0 16 -2 16 -4z m-104 -34 c26 -34 59 -120 50
-129 -3 -4 -13 2 -20 13 -14 19 -15 19 -34 -2 -10 -11 -25 -38 -32 -59 -13
-39 -13 -39 -23 -15 -8 21 -11 22 -14 8 -3 -10 -10 -18 -18 -18 -12 0 -30 27
-27 42 3 15 -26 59 -33 49 -3 -6 -11 -9 -16 -5 -5 3 -7 9 -4 14 3 5 1 11 -5
15 -17 11 -10 49 14 76 27 31 34 34 95 37 41 2 50 -2 67 -26z m-816 -743 c0
-5 -4 -9 -10 -9 -5 0 -10 7 -10 16 0 8 5 12 10 9 6 -3 10 -10 10 -16z m346
-76 c16 -77 59 -165 51 -104 -4 40 18 21 32 -26 24 -86 67 -123 206 -178 42
-17 137 -4 199 27 34 17 68 33 76 37 8 4 29 35 47 69 17 34 38 69 47 77 8 9
25 43 37 76 23 64 35 77 51 61 7 -7 6 -32 -5 -79 -9 -37 -18 -92 -22 -121 -6
-51 -48 -135 -94 -190 -36 -41 -214 -86 -306 -77 -71 7 -99 16 -184 58 -65 32
-103 73 -140 147 -27 54 -91 256 -84 264 6 6 87 -31 89 -41z m-201 -163 c3 -5
1 -10 -4 -10 -6 0 -11 5 -11 10 0 6 2 10 4 10 3 0 8 -4 11 -10z m15 -55 c0 -8
-4 -15 -10 -15 -5 0 -10 7 -10 15 0 8 5 15 10 15 6 0 10 -7 10 -15z"/>
<path d="M6096 7481 c-3 -4 8 -26 24 -47 16 -21 30 -45 30 -51 0 -19 27 -16
34 3 10 25 -75 117 -88 95z"/>
<path d="M5990 7376 c0 -7 6 -18 13 -24 7 -6 19 -27 27 -47 14 -36 36 -46 46
-20 4 9 -8 34 -27 60 -34 44 -59 58 -59 31z"/>
<path d="M5705 7290 c-7 -12 12 -50 25 -50 6 0 10 -6 10 -13 0 -7 6 -19 13
-25 6 -7 12 -16 12 -20 1 -4 6 -17 13 -29 6 -12 9 -28 6 -36 -3 -8 -1 -18 5
-22 16 -9 51 4 51 19 0 21 -27 68 -60 106 -17 19 -35 45 -40 58 -10 23 -25 29
-35 12z"/>
<path d="M5692 7153 c17 -37 53 -83 64 -83 8 0 14 3 14 6 0 12 -62 84 -72 84
-5 0 -8 -3 -6 -7z"/>
<path d="M2310 6936 c0 -9 7 -16 16 -16 17 0 14 22 -4 28 -7 2 -12 -3 -12 -12z"/>
<path d="M2509 6828 c-1 -7 -1 -17 0 -22 1 -5 -13 -25 -32 -45 -43 -44 -55
-79 -32 -87 9 -4 25 2 36 12 27 25 79 102 79 118 0 28 -49 51 -51 24z"/>
<path d="M3910 6771 c0 -6 5 -13 10 -16 6 -3 10 1 10 9 0 9 -4 16 -10 16 -5 0
-10 -4 -10 -9z"/>
<path d="M3825 6630 c3 -5 8 -10 11 -10 2 0 4 5 4 10 0 6 -5 10 -11 10 -5 0
-7 -4 -4 -10z"/>
<path d="M3800 6569 c0 -5 5 -7 10 -4 6 3 10 8 10 11 0 2 -4 4 -10 4 -5 0 -10
-5 -10 -11z"/>
<path d="M3965 6570 c-3 -5 -1 -10 4 -10 6 0 11 5 11 10 0 6 -2 10 -4 10 -3 0
-8 -4 -11 -10z"/>
<path d="M3700 6528 c0 -6 -7 -20 -17 -30 -9 -10 -11 -18 -5 -18 6 0 14 5 17
10 3 6 16 10 28 11 12 0 16 3 10 6 -7 2 -13 11 -13 19 0 8 -4 14 -10 14 -5 0
-10 -5 -10 -12z"/>
<path d="M3625 6520 c3 -5 10 -10 16 -10 5 0 9 5 9 10 0 6 -7 10 -16 10 -8 0
-12 -4 -9 -10z"/>
<path d="M3430 6482 c0 -5 7 -9 15 -9 8 0 12 4 9 9 -3 4 -9 8 -15 8 -5 0 -9
-4 -9 -8z"/>
<path d="M3485 6470 c-3 -5 -3 -15 0 -20 4 -6 2 -17 -5 -25 -9 -10 -7 -20 6
-40 15 -24 18 -25 27 -10 6 12 5 20 -3 25 -19 11 -3 29 20 23 11 -3 20 0 20 6
0 19 -5 26 -16 26 -6 0 -18 6 -27 13 -10 9 -17 10 -22 2z"/>
<path d="M3450 6440 c0 -5 5 -10 10 -10 6 0 10 5 10 10 0 6 -4 10 -10 10 -5 0
-10 -4 -10 -10z"/>
<path d="M3422 6391 c-13 -29 -8 -61 10 -61 5 0 8 10 7 23 -2 12 0 27 3 32 4
6 3 16 0 22 -5 8 -12 2 -20 -16z"/>
<path d="M3763 6337 c-4 -6 -34 -32 -65 -57 -38 -30 -57 -52 -58 -67 0 -14 -6
-23 -15 -23 -8 0 -15 -7 -15 -16 0 -9 -13 -36 -30 -61 -35 -51 -35 -53 -15
-53 8 0 15 5 15 11 0 6 14 31 30 56 17 24 30 46 30 49 0 7 103 128 112 132 4
2 18 12 30 22 19 16 20 19 6 20 -9 0 -21 -6 -25 -13z"/>
<path d="M3420 6309 c0 -5 5 -7 10 -4 6 3 10 8 10 11 0 2 -4 4 -10 4 -5 0 -10
-5 -10 -11z"/>
<path d="M3391 6244 c5 -15 5 -24 -1 -24 -6 0 -10 -9 -10 -21 0 -14 -5 -19
-14 -16 -15 6 -61 -31 -51 -41 4 -4 12 1 19 11 7 9 16 17 20 17 13 0 5 -37
-12 -56 -23 -25 -34 -54 -21 -54 6 0 13 9 16 20 3 11 9 20 14 20 5 0 9 4 9 10
0 5 16 32 36 59 19 28 37 60 39 73 4 19 0 23 -24 24 -27 1 -29 -1 -20 -22z"/>
<path d="M3705 6145 c-33 -28 -36 -35 -22 -41 19 -7 22 -35 6 -51 -6 -6 -9
-17 -7 -23 2 -8 12 -1 22 15 14 22 16 32 8 46 -8 13 -7 21 8 34 15 13 34 55
26 55 -1 0 -20 -16 -41 -35z"/>
<path d="M2560 6086 c0 -8 4 -17 9 -20 10 -7 23 19 14 28 -11 11 -23 6 -23 -8z"/>
<path d="M3600 6050 c-8 -5 -16 -22 -17 -37 -4 -66 -16 -134 -24 -139 -5 -3
-9 -19 -9 -35 0 -18 4 -28 10 -24 6 4 8 11 4 16 -3 5 0 17 7 25 12 14 24 63
36 147 3 20 9 37 14 37 5 0 9 5 9 10 0 12 -11 13 -30 0z"/>
<path d="M3660 5974 c-6 -14 -10 -34 -10 -44 0 -10 -4 -22 -10 -25 -5 -3 -10
-14 -10 -23 0 -10 9 -3 25 18 14 19 23 40 21 47 -3 8 1 10 11 6 13 -5 15 -2
10 11 -4 10 -7 22 -7 27 0 19 -21 8 -30 -17z"/>
<path d="M3471 5974 c0 -11 3 -14 6 -6 3 7 2 16 -1 19 -3 4 -6 -2 -5 -13z"/>
<path d="M3515 5889 c-4 -6 -5 -12 -2 -15 2 -3 7 2 10 11 7 17 1 20 -8 4z"/>
<path d="M3630 5851 c0 -5 5 -13 10 -16 6 -3 10 -2 10 4 0 5 -4 13 -10 16 -5
3 -10 2 -10 -4z"/>
<path d="M3602 5807 c-12 -13 -22 -28 -22 -34 0 -6 -6 -16 -14 -23 -8 -6 -13
-17 -10 -25 3 -7 1 -16 -5 -20 -6 -3 -11 -11 -11 -17 0 -7 6 -6 15 2 8 7 15
17 15 22 0 5 9 21 20 35 15 19 20 21 20 9 0 -26 17 -18 34 16 19 37 20 46 4
30 -18 -18 -30 -14 -23 8 8 26 3 25 -23 -3z"/>
<path d="M3395 5800 c3 -5 8 -10 11 -10 2 0 4 5 4 10 0 6 -5 10 -11 10 -5 0
-7 -4 -4 -10z"/>
<path d="M3745 5550 c3 -5 8 -10 11 -10 2 0 4 5 4 10 0 6 -5 10 -11 10 -5 0
-7 -4 -4 -10z"/>
<path d="M3641 5504 c0 -11 3 -14 6 -6 3 7 2 16 -1 19 -3 4 -6 -2 -5 -13z"/>
<path d="M3729 5490 c-6 -14 -4 -118 1 -115 13 8 19 75 10 98 -5 12 -10 20
-11 17z"/>
<path d="M3655 5350 c-4 -7 -2 -17 4 -23 6 -6 11 -24 11 -39 0 -15 5 -28 10
-28 15 0 12 76 -4 89 -11 9 -16 9 -21 1z"/>
<path d="M3710 5301 c0 -17 5 -33 10 -36 6 -4 10 8 10 29 0 20 -4 36 -10 36
-5 0 -10 -13 -10 -29z"/>
<path d="M2725 5276 c-39 -17 -105 -85 -105 -109 0 -9 -6 -20 -14 -23 -20 -8
-37 -98 -39 -214 -2 -104 -13 -132 -29 -75 -12 42 -1 250 14 277 7 13 12 26
11 29 -1 3 5 28 13 54 8 27 12 51 9 53 -7 8 -34 -28 -41 -55 -3 -13 -9 -23
-13 -23 -4 0 -7 -19 -8 -42 -1 -22 -7 -46 -14 -52 -9 -8 -10 -4 -5 17 3 15 3
27 -1 27 -14 -1 -44 -50 -48 -78 -2 -15 -4 -29 -4 -32 -1 -3 -5 2 -11 10 -5 8
-12 11 -16 7 -4 -3 -2 -12 3 -19 6 -7 9 -28 8 -46 -2 -23 5 -46 21 -69 13 -20
24 -44 24 -54 0 -11 7 -19 15 -19 8 0 15 -6 15 -14 0 -7 7 -19 15 -26 8 -7 15
-20 15 -29 0 -20 40 -61 58 -61 15 0 15 6 2 31 -10 17 -8 18 15 9 14 -5 25 -6
25 -1 0 10 47 8 73 -4 12 -5 24 -2 36 10 18 16 20 15 26 -5 5 -17 9 -19 21 -9
11 9 18 9 26 1 7 -7 4 -15 -11 -28 -25 -22 -27 -34 -5 -34 25 0 120 96 172
175 44 65 48 75 50 140 4 97 -26 195 -73 232 -71 57 -166 77 -230 49z m-228
-258 c-3 -8 -6 -5 -6 6 -1 11 2 17 5 13 3 -3 4 -12 1 -19z"/>
<path d="M3837 5283 c-9 -2 -15 -9 -12 -14 9 -14 22 -11 29 6 3 8 4 14 3 14
-1 -1 -10 -3 -20 -6z"/>
<path d="M4422 5230 c-7 -11 -10 -20 -6 -20 7 0 34 27 34 34 0 13 -16 5 -28
-14z"/>
<path d="M4374 5148 c-14 -22 -15 -143 -1 -161 10 -14 12 0 12 78 0 52 -1 95
-2 95 -1 0 -5 -5 -9 -12z"/>
<path d="M3720 5110 c0 -5 5 -10 11 -10 5 0 7 5 4 10 -3 6 -8 10 -11 10 -2 0
-4 -4 -4 -10z"/>
<path d="M4319 5105 c-9 -14 2 -115 12 -115 14 0 21 21 11 33 -6 7 -12 30 -14
52 -2 22 -6 36 -9 30z"/>
<path d="M4330 4966 c0 -8 5 -18 10 -21 6 -4 9 -19 8 -33 -2 -21 2 -28 20 -30
12 -2 22 -10 22 -19 0 -11 -6 -14 -25 -9 -14 4 -25 2 -25 -4 0 -5 16 -10 35
-10 43 0 47 22 11 55 -14 12 -26 35 -28 51 -3 29 -28 47 -28 20z"/>
<path d="M4406 4831 c-10 -16 90 -81 125 -81 5 0 9 7 9 15 0 8 -4 15 -10 15
-5 0 -32 14 -58 30 -54 33 -58 34 -66 21z"/>
<path d="M3440 4570 c0 -5 4 -10 9 -10 5 0 18 -3 28 -6 16 -5 16 -4 -1 10 -23
18 -36 20 -36 6z"/>
<path d="M3580 4541 c0 -6 5 -13 10 -16 6 -3 10 1 10 9 0 9 -4 16 -10 16 -5 0
-10 -4 -10 -9z"/>
<path d="M3370 4410 c0 -5 8 -19 18 -29 9 -11 23 -27 30 -35 15 -18 32 -21 32
-5 0 17 -51 79 -66 79 -8 0 -14 -4 -14 -10z"/>
<path d="M3860 4328 c0 -8 9 -23 20 -33 16 -15 20 -15 20 -3 0 8 -9 23 -20 33
-16 15 -20 15 -20 3z"/>
<path d="M3260 4320 c0 -5 7 -10 16 -10 8 0 12 5 9 10 -3 6 -10 10 -16 10 -5
0 -9 -4 -9 -10z"/>
<path d="M3441 4306 c-8 -10 -9 -16 -1 -21 5 -3 13 1 16 10 9 22 -1 29 -15 11z"/>
<path d="M3616 4168 c-49 -77 -71 -158 -32 -117 14 13 76 124 76 134 0 15 -32
2 -44 -17z"/>
<path d="M3480 4159 c0 -5 5 -7 10 -4 6 3 10 8 10 11 0 2 -4 4 -10 4 -5 0 -10
-5 -10 -11z"/>
<path d="M3930 4131 c0 -14 18 -23 31 -15 8 4 7 9 -2 15 -18 11 -29 11 -29 0z"/>
<path d="M3330 3970 c0 -5 5 -10 11 -10 5 0 7 5 4 10 -3 6 -8 10 -11 10 -2 0
-4 -4 -4 -10z"/>
<path d="M3350 3925 c0 -14 5 -25 10 -25 6 0 10 11 10 25 0 14 -4 25 -10 25
-5 0 -10 -11 -10 -25z"/>
<path d="M3109 3228 c-6 -49 -5 -88 2 -88 4 0 9 -8 12 -17 3 -16 5 -16 11 2 4
11 12 28 18 39 6 12 6 22 -1 29 -6 6 -11 19 -11 29 0 20 -29 25 -31 6z"/>
<path d="M4937 5593 c-13 -13 -7 -21 13 -16 11 3 17 9 14 14 -6 11 -18 12 -27
2z"/>
<path d="M5517 4983 c-12 -11 -8 -23 8 -23 8 0 15 7 15 15 0 16 -12 20 -23 8z"/>
<path d="M6191 4351 c-8 -5 -9 -11 -3 -15 5 -3 15 1 22 9 14 16 3 20 -19 6z"/>
<path d="M1250 4500 c0 -5 5 -10 11 -10 5 0 7 5 4 10 -3 6 -8 10 -11 10 -2 0
-4 -4 -4 -10z"/>
<path d="M2560 4489 c0 -5 5 -7 10 -4 6 3 10 8 10 11 0 2 -4 4 -10 4 -5 0 -10
-5 -10 -11z"/>
<path d="M2645 4450 c-3 -5 -1 -10 4 -10 6 0 11 5 11 10 0 6 -2 10 -4 10 -3 0
-8 -4 -11 -10z"/>
<path d="M2734 4335 c-22 -15 -54 -73 -54 -96 0 -15 44 31 73 74 26 41 19 49
-19 22z"/>
<path d="M4930 3870 c0 -5 5 -10 10 -10 6 0 10 5 10 10 0 6 -4 10 -10 10 -5 0
-10 -4 -10 -10z"/>
<path d="M4250 2750 c0 -5 5 -10 11 -10 5 0 7 5 4 10 -3 6 -8 10 -11 10 -2 0
-4 -4 -4 -10z"/>
<path d="M4270 2720 c0 -5 5 -10 10 -10 6 0 10 5 10 10 0 6 -4 10 -10 10 -5 0
-10 -4 -10 -10z"/>
<path d="M3365 1940 c-3 -5 -1 -10 4 -10 6 0 11 5 11 10 0 6 -2 10 -4 10 -3 0
-8 -4 -11 -10z"/>
<path d="M3320 1784 c0 -22 2 -25 15 -14 8 7 15 19 15 26 0 8 -7 14 -15 14
-10 0 -15 -10 -15 -26z"/>
<path d="M4392 1728 c-5 -7 -13 -24 -17 -38 -14 -48 -97 -206 -134 -255 -21
-27 -54 -75 -73 -105 -19 -30 -66 -102 -104 -160 -38 -58 -76 -121 -85 -140
-9 -19 -23 -41 -32 -49 -9 -7 -14 -18 -11 -23 7 -12 -15 -68 -27 -68 -5 0 -18
6 -29 12 -15 10 -27 10 -49 1 -28 -10 -33 -8 -77 35 -50 47 -98 112 -129 172
-10 19 -44 67 -75 105 -31 39 -79 104 -105 145 -27 41 -72 97 -99 123 -28 27
-63 70 -77 95 -20 37 -33 48 -62 55 -25 6 -34 13 -30 23 8 22 -7 16 -36 -13
-44 -47 -32 -146 26 -208 10 -11 28 -40 40 -65 11 -25 30 -54 42 -64 12 -11
21 -27 21 -36 0 -9 9 -25 20 -35 11 -10 20 -25 20 -34 0 -20 204 -249 286
-322 33 -30 75 -71 93 -91 23 -26 49 -42 84 -53 70 -21 85 -19 154 15 45 23
76 49 126 107 71 85 99 113 137 142 20 16 23 22 13 32 -7 7 -13 16 -13 20 0 4
29 38 65 75 36 38 75 89 88 114 12 25 36 65 53 90 68 100 104 213 104 323 0
47 -3 57 -25 71 -29 19 -69 21 -83 4z"/>
<path d="M4235 1940 c3 -5 8 -10 11 -10 2 0 4 5 4 10 0 6 -5 10 -11 10 -5 0
-7 -4 -4 -10z"/>
<path d="M3785 1270 c3 -5 8 -10 11 -10 2 0 4 5 4 10 0 6 -5 10 -11 10 -5 0
-7 -4 -4 -10z"/>
<path d="M7667 7666 c-11 -28 -8 -676 3 -676 7 0 10 115 10 345 0 190 -2 345
-4 345 -2 0 -6 -6 -9 -14z"/>
<path d="M6252 7615 c-6 -14 -8 -25 -3 -25 5 0 11 -9 14 -20 6 -23 37 -28 37
-6 0 8 3 21 6 29 5 14 -19 47 -35 47 -4 0 -13 -11 -19 -25z"/>
<path d="M1070 7541 c0 -7 9 -28 20 -46 16 -26 25 -31 45 -27 29 5 34 22 6 22
-11 0 -31 15 -45 33 -14 17 -26 26 -26 18z"/>
<path d="M7006 7471 c-4 -7 -5 -15 -2 -18 9 -9 19 4 14 18 -4 11 -6 11 -12 0z"/>
<path d="M6757 7414 c-8 -8 3 -34 14 -34 5 0 9 9 9 20 0 19 -11 26 -23 14z"/>
<path d="M7403 7385 c-3 -9 -3 -19 1 -22 7 -7 36 16 36 28 0 15 -30 10 -37 -6z"/>
<path d="M1146 7371 c-14 -15 -14 -20 -3 -30 11 -8 18 -7 31 8 10 11 15 25 11
30 -9 16 -20 14 -39 -8z"/>
<path d="M6967 7384 c-4 -4 -7 -21 -7 -38 0 -27 2 -29 15 -15 11 11 13 22 7
38 -4 12 -11 19 -15 15z"/>
<path d="M6735 7260 c-3 -5 -1 -10 4 -10 6 0 11 5 11 10 0 6 -2 10 -4 10 -3 0
-8 -4 -11 -10z"/>
<path d="M4340 7216 c0 -2 7 -7 16 -10 8 -3 12 -2 9 4 -6 10 -25 14 -25 6z"/>
<path d="M6713 7192 c-19 -3 -21 -6 -11 -22 12 -18 12 -18 26 1 16 24 15 26
-15 21z"/>
<path d="M4730 7170 c0 -5 5 -10 11 -10 5 0 7 5 4 10 -3 6 -8 10 -11 10 -2 0
-4 -4 -4 -10z"/>
<path d="M6690 7125 c0 -8 5 -15 10 -15 6 0 10 7 10 15 0 8 -4 15 -10 15 -5 0
-10 -7 -10 -15z"/>
<path d="M7661 6761 c0 -111 5 -204 10 -207 5 -3 9 79 9 195 0 127 -4 202 -10
206 -7 5 -10 -58 -9 -194z"/>
<path d="M6732 6724 c-38 -19 -49 -34 -26 -34 11 0 28 9 37 21 22 26 19 29
-11 13z"/>
<path d="M7120 6690 c0 -19 3 -21 12 -12 9 9 9 15 0 24 -9 9 -12 7 -12 -12z"/>
<path d="M1367 6653 c-12 -11 -8 -23 8 -23 8 0 15 7 15 15 0 16 -12 20 -23 8z"/>
<path d="M7015 6650 c3 -5 11 -10 16 -10 6 0 7 5 4 10 -3 6 -11 10 -16 10 -6
0 -7 -4 -4 -10z"/>
<path d="M6825 6574 c-12 -12 -13 -20 -5 -28 7 -7 17 -3 36 17 23 25 23 27 5
27 -11 0 -27 -7 -36 -16z"/>
<path d="M1470 6550 c0 -19 3 -21 12 -12 9 9 9 15 0 24 -9 9 -12 7 -12 -12z"/>
<path d="M7655 6518 c-4 -15 -3 -33 1 -40 4 -7 6 -141 4 -298 -7 -461 -2 -798
12 -806 4 -3 8 253 8 568 0 529 -6 653 -25 576z"/>
<path d="M5750 6521 c0 -5 7 -14 15 -21 18 -15 42 1 31 19 -8 13 -46 15 -46 2z"/>
<path d="M5865 6520 c3 -5 13 -10 21 -10 8 0 12 5 9 10 -3 6 -13 10 -21 10 -8
0 -12 -4 -9 -10z"/>
<path d="M6332 6379 c2 -7 10 -15 17 -17 8 -3 12 1 9 9 -2 7 -10 15 -17 17 -8
3 -12 -1 -9 -9z"/>
<path d="M6780 6191 c0 -3 12 -12 27 -19 28 -12 51 -3 39 16 -7 11 -66 13 -66
3z"/>
<path d="M7330 5461 c0 -17 18 -21 24 -6 3 9 0 15 -9 15 -8 0 -15 -4 -15 -9z"/>
<path d="M7347 5424 c-3 -6 1 -35 9 -65 9 -30 18 -66 21 -82 3 -15 10 -30 16
-34 6 -4 8 4 3 23 -3 16 -8 45 -11 65 -6 48 -29 106 -38 93z"/>
<path d="M7669 5208 c-15 -1573 -15 -1908 2 -1908 5 0 9 447 9 1015 0 558 -2
1015 -5 1015 -3 0 -6 -55 -6 -122z"/>
<path d="M7400 5168 c0 -7 4 -19 9 -27 11 -17 23 1 15 23 -7 19 -24 21 -24 4z"/>
<path d="M7601 4534 c0 -11 3 -14 6 -6 3 7 2 16 -1 19 -3 4 -6 -2 -5 -13z"/>
<path d="M7450 4516 c0 -31 6 -34 13 -6 3 11 1 23 -4 26 -5 3 -9 -6 -9 -20z"/>
<path d="M7170 4310 c0 -5 5 -10 11 -10 5 0 7 5 4 10 -3 6 -8 10 -11 10 -2 0
-4 -4 -4 -10z"/>
<path d="M7440 4300 c0 -13 5 -20 13 -17 6 2 12 10 12 17 0 7 -6 15 -12 18 -8
2 -13 -5 -13 -18z"/>
<path d="M7170 4225 c0 -9 5 -15 11 -13 6 2 11 8 11 13 0 5 -5 11 -11 13 -6 2
-11 -4 -11 -13z"/>
<path d="M7411 4154 c0 -11 3 -14 6 -6 3 7 2 16 -1 19 -3 4 -6 -2 -5 -13z"/>
<path d="M7200 4030 c0 -13 5 -20 13 -17 6 2 12 10 12 17 0 7 -6 15 -12 18 -8
2 -13 -5 -13 -18z"/>
<path d="M6295 3980 c-3 -5 -1 -10 4 -10 6 0 11 5 11 10 0 6 -2 10 -4 10 -3 0
-8 -4 -11 -10z"/>
<path d="M7368 3982 c-31 -4 -37 -17 -11 -26 9 -4 23 0 32 8 18 19 14 22 -21
18z"/>
<path d="M6664 3844 c3 -9 6 -18 6 -20 0 -3 6 1 14 8 16 15 11 28 -11 28 -10
0 -13 -6 -9 -16z"/>
<path d="M7600 3830 c6 -11 12 -20 14 -20 2 0 2 9 -1 20 -3 11 -9 20 -15 20
-5 0 -4 -9 2 -20z"/>
<path d="M5400 3830 c0 -5 5 -10 10 -10 6 0 10 5 10 10 0 6 -4 10 -10 10 -5 0
-10 -4 -10 -10z"/>
<path d="M7292 3824 c-7 -8 -10 -19 -6 -26 5 -7 11 -5 21 7 23 33 11 49 -15
19z"/>
<path d="M1528 3803 c6 -2 18 -2 25 0 6 3 1 5 -13 5 -14 0 -19 -2 -12 -5z"/>
<path d="M7614 3779 c-3 -6 -1 -16 5 -22 8 -8 11 -5 11 11 0 24 -5 28 -16 11z"/>
<path d="M6570 3720 c0 -11 5 -20 10 -20 6 0 10 9 10 20 0 11 -4 20 -10 20 -5
0 -10 -9 -10 -20z"/>
<path d="M7540 3731 c0 -6 5 -13 10 -16 6 -3 10 1 10 9 0 9 -4 16 -10 16 -5 0
-10 -4 -10 -9z"/>
<path d="M7610 3721 c0 -12 5 -21 10 -21 6 0 10 6 10 14 0 8 -4 18 -10 21 -5
3 -10 -3 -10 -14z"/>
<path d="M6705 3720 c-3 -5 -1 -10 4 -10 6 0 11 5 11 10 0 6 -2 10 -4 10 -3 0
-8 -4 -11 -10z"/>
<path d="M7446 3714 c-8 -21 -1 -28 19 -20 9 3 15 11 13 18 -7 19 -25 20 -32
2z"/>
<path d="M6880 3700 c0 -5 7 -10 15 -10 8 0 15 5 15 10 0 6 -7 10 -15 10 -8 0
-15 -4 -15 -10z"/>
<path d="M6345 3690 c-3 -5 1 -10 9 -10 9 0 16 5 16 10 0 6 -4 10 -9 10 -6 0
-13 -4 -16 -10z"/>
<path d="M6605 3691 c-3 -5 -1 -12 5 -16 5 -3 10 1 10 9 0 18 -6 21 -15 7z"/>
<path d="M7606 3671 c-3 -4 1 -17 9 -27 14 -18 14 -18 15 9 0 26 -13 36 -24
18z"/>
<path d="M6320 3645 c0 -8 -8 -15 -19 -15 -20 0 -57 -47 -46 -58 3 -4 10 0 15
8 7 11 11 11 24 1 12 -10 17 -9 26 8 6 12 7 21 3 21 -4 0 -2 5 5 12 15 15 16
38 2 38 -5 0 -10 -7 -10 -15z"/>
<path d="M5640 3639 c0 -5 5 -7 10 -4 6 3 10 8 10 11 0 2 -4 4 -10 4 -5 0 -10
-5 -10 -11z"/>
<path d="M6620 3594 c-24 -47 -24 -50 -1 -26 12 12 21 30 19 39 -2 12 -7 9
-18 -13z"/>
<path d="M5820 3599 c0 -5 5 -7 10 -4 6 3 10 8 10 11 0 2 -4 4 -10 4 -5 0 -10
-5 -10 -11z"/>
<path d="M7187 3603 c-12 -12 -7 -22 8 -17 8 4 15 10 15 15 0 11 -14 12 -23 2z"/>
<path d="M7237 3583 c-4 -3 -7 -11 -7 -17 0 -6 5 -5 12 2 6 6 9 14 7 17 -3 3
-9 2 -12 -2z"/>
<path d="M7355 3546 c-30 -17 -33 -25 -21 -52 13 -28 30 -32 23 -5 -3 13 1 21
14 24 19 5 26 32 12 40 -5 3 -17 0 -28 -7z"/>
<path d="M7500 3535 c0 -8 5 -15 10 -15 6 0 10 7 10 15 0 8 -4 15 -10 15 -5 0
-10 -7 -10 -15z"/>
<path d="M6170 3521 c-7 -15 -7 -21 0 -21 12 0 25 28 17 36 -3 3 -10 -4 -17
-15z"/>
<path d="M6466 3531 c-4 -7 -5 -15 -2 -18 9 -9 19 4 14 18 -4 11 -6 11 -12 0z"/>
<path d="M6681 3504 c-19 -27 -30 -35 -48 -31 -26 5 -30 -5 -9 -22 11 -9 16
-9 21 -1 4 7 16 9 27 7 13 -4 22 2 30 18 6 14 16 21 24 18 10 -4 13 2 12 21
-3 37 -28 33 -57 -10z"/>
<path d="M6361 3504 c0 -11 3 -14 6 -6 3 7 2 16 -1 19 -3 4 -6 -2 -5 -13z"/>
<path d="M7082 3486 c-29 -23 -37 -36 -28 -39 8 -3 16 2 19 14 3 11 14 19 26
19 12 0 24 7 28 15 10 29 -4 26 -45 -9z"/>
<path d="M6425 3488 c-4 -10 -13 -18 -20 -18 -17 0 -40 -28 -31 -38 4 -4 13 1
20 11 16 20 26 22 26 4 0 -16 56 -21 66 -6 10 16 -4 23 -20 10 -13 -11 -17 -7
-24 21 -8 26 -11 30 -17 16z"/>
<path d="M6947 3468 c-3 -18 -8 -41 -12 -50 -4 -10 -3 -18 3 -18 11 0 16 12
27 68 4 18 2 32 -3 32 -5 0 -12 -15 -15 -32z"/>
<path d="M7470 3493 c0 -6 8 -17 18 -24 16 -13 16 -13 2 6 -8 11 -16 22 -17
24 -2 2 -3 0 -3 -6z"/>
<path d="M6290 3479 c0 -5 5 -7 10 -4 6 3 10 8 10 11 0 2 -4 4 -10 4 -5 0 -10
-5 -10 -11z"/>
<path d="M6575 3480 c-3 -5 -1 -10 4 -10 6 0 11 5 11 10 0 6 -2 10 -4 10 -3 0
-8 -4 -11 -10z"/>
<path d="M5620 3470 c0 -5 4 -10 9 -10 6 0 13 5 16 10 3 6 -1 10 -9 10 -9 0
-16 -4 -16 -10z"/>
<path d="M6995 3470 c3 -5 8 -10 11 -10 2 0 4 5 4 10 0 6 -5 10 -11 10 -5 0
-7 -4 -4 -10z"/>
<path d="M6665 3420 c-3 -5 -1 -10 4 -10 6 0 11 5 11 10 0 6 -2 10 -4 10 -3 0
-8 -4 -11 -10z"/>
<path d="M5452 3375 c0 -16 2 -22 5 -12 2 9 2 23 0 30 -3 6 -5 -1 -5 -18z"/>
<path d="M5707 3383 c-4 -3 -7 -11 -7 -17 0 -6 5 -5 12 2 6 6 9 14 7 17 -3 3
-9 2 -12 -2z"/>
<path d="M6840 3365 c0 -8 5 -15 10 -15 6 0 10 7 10 15 0 8 -4 15 -10 15 -5 0
-10 -7 -10 -15z"/>
<path d="M5381 3356 c-8 -10 -9 -16 -1 -21 13 -8 30 3 30 21 0 18 -14 18 -29
0z"/>
<path d="M6761 3361 c-8 -6 -9 -11 -3 -15 6 -3 14 -1 17 5 9 14 2 20 -14 10z"/>
<path d="M7004 3346 c-3 -9 -4 -22 -1 -30 3 -7 1 -18 -3 -22 -5 -5 -5 -15 -1
-23 7 -11 15 -9 40 10 17 12 31 26 31 30 0 16 -23 21 -31 8 -6 -11 -9 -8 -9 8
0 27 -18 40 -26 19z"/>
<path d="M7143 3344 c-3 -8 -1 -20 4 -25 7 -7 12 -2 15 15 6 28 -9 36 -19 10z"/>
<path d="M6840 3299 c0 -5 5 -7 10 -4 6 3 10 8 10 11 0 2 -4 4 -10 4 -5 0 -10
-5 -10 -11z"/>
<path d="M6502 3270 c-7 -11 -9 -20 -4 -20 4 0 13 9 20 20 7 11 9 20 4 20 -4
0 -13 -9 -20 -20z"/>
<path d="M6524 3229 c-3 -6 -1 -16 5 -22 8 -8 11 -5 11 11 0 24 -5 28 -16 11z"/>
<path d="M7658 3217 c-6 -28 1 -49 13 -41 12 7 12 64 0 64 -5 0 -11 -10 -13
-23z"/>
<path d="M6561 3184 c0 -11 3 -14 6 -6 3 7 2 16 -1 19 -3 4 -6 -2 -5 -13z"/>
<path d="M5590 3181 c0 -18 18 -21 30 -6 10 13 9 15 -9 15 -11 0 -21 -4 -21
-9z"/>
<path d="M5400 3149 c0 -11 5 -17 10 -14 6 3 10 13 10 21 0 8 -4 14 -10 14 -5
0 -10 -9 -10 -21z"/>
<path d="M5978 3163 c7 -3 16 -2 19 1 4 3 -2 6 -13 5 -11 0 -14 -3 -6 -6z"/>
<path d="M6830 3141 c0 -24 18 -37 32 -23 8 8 7 16 -2 27 -17 21 -30 19 -30
-4z"/>
<path d="M5936 3104 c-9 -24 -7 -44 4 -44 6 0 10 9 10 20 0 11 5 20 10 20 6 0
10 5 10 10 0 16 -27 11 -34 -6z"/>
<path d="M6951 3072 c-6 -12 -10 -49 -8 -87 3 -44 0 -68 -9 -76 -9 -7 -14 -5
-19 10 -11 36 -22 23 -34 -40 -7 -34 -16 -69 -21 -78 -16 -29 -22 -56 -24 -99
-2 -51 10 -65 19 -22 4 16 12 30 18 30 22 0 38 37 28 64 -6 13 -7 27 -4 30 6
5 10 27 12 64 1 6 5 12 10 12 4 0 6 -11 3 -25 -7 -38 7 -95 23 -95 8 0 15 3
16 8 0 4 2 21 3 37 1 17 10 46 19 64 21 42 21 51 2 51 -11 0 -14 7 -9 24 3 13
1 27 -5 30 -8 5 -6 16 4 36 18 36 19 41 1 65 -13 18 -14 18 -25 -3z m-67 -327
c3 -9 0 -15 -9 -15 -8 0 -15 7 -15 15 0 8 4 15 9 15 5 0 11 -7 15 -15z"/>
<path d="M7666 3033 c-9 -80 -6 -403 5 -403 5 0 9 91 9 225 0 124 -2 225 -4
225 -2 0 -7 -21 -10 -47z"/>
<path d="M5603 3034 c3 -4 1 -16 -5 -27 -8 -16 -8 -19 5 -14 8 3 20 0 26 -6 6
-6 14 -7 18 -2 5 4 2 10 -4 12 -7 3 -13 13 -13 24 0 11 -7 19 -17 19 -9 0 -13
-3 -10 -6z"/>
<path d="M6901 2984 c0 -11 3 -14 6 -6 3 7 2 16 -1 19 -3 4 -6 -2 -5 -13z"/>
<path d="M5540 2974 c0 -8 5 -12 10 -9 6 4 8 11 5 16 -9 14 -15 11 -15 -7z"/>
<path d="M5238 2966 c-22 -16 -23 -26 -4 -26 7 0 16 9 19 20 3 11 4 20 4 20
-1 0 -10 -7 -19 -14z"/>
<path d="M5617 2933 c-10 -10 -8 -43 2 -43 15 0 23 18 11 25 -6 4 -8 11 -5 16
7 10 1 12 -8 2z"/>
<path d="M6130 2920 c0 -5 5 -10 10 -10 6 0 10 5 10 10 0 6 -4 10 -10 10 -5 0
-10 -4 -10 -10z"/>
<path d="M7533 2915 c-3 -9 -3 -18 0 -21 9 -9 27 6 27 22 0 19 -19 18 -27 -1z"/>
<path d="M5472 2871 c4 -13 18 -16 19 -4 0 4 -5 9 -11 12 -7 2 -11 -2 -8 -8z"/>
<path d="M5232 2858 c-6 -7 -13 -25 -17 -41 -5 -20 -4 -27 8 -27 9 0 17 14 22
36 7 40 3 51 -13 32z"/>
<path d="M5436 2861 c-4 -7 -5 -15 -2 -18 9 -9 19 4 14 18 -4 11 -6 11 -12 0z"/>
<path d="M5610 2849 c3 -21 -11 -59 -21 -59 -5 0 -9 -5 -9 -11 0 -6 8 -8 19
-4 13 4 23 0 30 -12 8 -14 10 -5 7 36 -1 33 -8 57 -15 59 -7 2 -12 -2 -11 -9z"/>
<path d="M6390 2836 c0 -9 5 -16 10 -16 6 0 10 4 10 9 0 6 -4 13 -10 16 -5 3
-10 -1 -10 -9z"/>
<path d="M7470 2829 c0 -11 4 -18 10 -14 5 3 7 12 3 20 -7 21 -13 19 -13 -6z"/>
<path d="M7135 2801 c-3 -5 -1 -12 4 -15 5 -3 11 1 15 9 6 16 -9 21 -19 6z"/>
<path d="M6650 2788 c0 -7 4 -19 9 -27 11 -17 25 3 17 24 -7 18 -26 20 -26 3z"/>
<path d="M7018 2761 c-11 -13 -24 -18 -37 -14 -12 3 -21 1 -21 -6 0 -6 6 -11
13 -11 9 0 11 -22 9 -85 -2 -56 0 -85 7 -85 7 0 11 27 11 72 0 66 2 74 26 93
21 16 25 25 18 38 -9 15 -11 15 -26 -2z"/>
<path d="M5776 2751 c-5 -13 -4 -27 3 -34 6 -6 11 -21 11 -34 0 -14 6 -23 15
-23 17 0 13 27 -10 85 -12 30 -12 30 -19 6z"/>
<path d="M461 2734 c0 -11 3 -14 6 -6 3 7 2 16 -1 19 -3 4 -6 -2 -5 -13z"/>
<path d="M7116 2723 c-15 -54 -18 -85 -7 -79 6 4 11 16 11 27 0 11 5 29 10 39
6 11 6 21 1 25 -5 3 -12 -3 -15 -12z"/>
<path d="M6778 2643 c-2 -38 -7 -47 -19 -45 -32 5 -42 -23 -22 -65 l17 -38 4
37 c4 42 32 62 32 23 0 -14 5 -25 10 -25 6 0 10 7 10 15 0 9 9 15 22 15 17 0
19 3 10 12 -7 7 -12 22 -12 33 0 26 -28 85 -40 85 -5 0 -10 -21 -12 -47z"/>
<path d="M6166 2652 c-2 -4 -1 -14 5 -22 7 -12 9 -10 9 8 0 23 -5 28 -14 14z"/>
<path d="M6676 2644 c-5 -14 -4 -15 9 -4 17 14 19 20 6 20 -5 0 -12 -7 -15
-16z"/>
<path d="M7500 2641 c5 -11 7 -27 4 -35 -3 -9 -1 -16 5 -16 6 0 11 16 11 35 0
25 -4 35 -15 35 -12 0 -13 -4 -5 -19z"/>
<path d="M6013 2624 c-3 -8 -1 -25 5 -37 10 -20 11 -18 11 16 1 39 -5 48 -16
21z"/>
<path d="M6879 2610 c-1 -16 -2 -35 -3 -42 -2 -20 21 -20 27 1 6 25 -3 71 -14
71 -5 0 -10 -13 -10 -30z"/>
<path d="M7149 2633 c-15 -96 -17 -163 -5 -163 10 0 31 77 39 145 2 18 -31 37
-34 18z"/>
<path d="M5200 2621 c0 -6 5 -13 10 -16 6 -3 10 1 10 9 0 9 -4 16 -10 16 -5 0
-10 -4 -10 -9z"/>
<path d="M6702 2607 c-12 -23 -12 -127 -1 -127 13 0 18 29 13 70 -3 23 0 48 6
55 6 7 7 16 2 19 -5 3 -14 -5 -20 -17z"/>
<path d="M5830 2606 c0 -9 5 -16 10 -16 6 0 10 4 10 9 0 6 -4 13 -10 16 -5 3
-10 -1 -10 -9z"/>
<path d="M6180 2599 c0 -5 5 -7 10 -4 6 3 10 8 10 11 0 2 -4 4 -10 4 -5 0 -10
-5 -10 -11z"/>
<path d="M7420 2600 c0 -5 5 -10 11 -10 5 0 7 5 4 10 -3 6 -8 10 -11 10 -2 0
-4 -4 -4 -10z"/>
<path d="M6090 2574 c0 -8 5 -12 10 -9 6 3 10 10 10 16 0 5 -4 9 -10 9 -5 0
-10 -7 -10 -16z"/>
<path d="M5190 2560 c0 -5 5 -10 11 -10 5 0 7 5 4 10 -3 6 -8 10 -11 10 -2 0
-4 -4 -4 -10z"/>
<path d="M7070 2535 c0 -18 4 -23 15 -19 17 7 17 7 9 28 -9 24 -24 19 -24 -9z"/>
<path d="M7666 2516 c-4 -19 -6 -232 -5 -473 1 -241 1 -455 0 -475 -1 -21 3
-38 9 -38 7 0 10 169 10 510 0 281 -2 510 -4 510 -2 0 -7 -15 -10 -34z"/>
<path d="M5435 2530 c-3 -5 1 -10 9 -10 9 0 16 5 16 10 0 6 -4 10 -9 10 -6 0
-13 -4 -16 -10z"/>
<path d="M6087 2533 c-3 -5 -1 -19 4 -32 12 -30 31 -15 23 17 -6 22 -19 29
-27 15z"/>
<path d="M5397 2510 c-9 -34 6 -65 31 -66 17 0 22 5 22 23 0 14 -6 23 -15 23
-8 0 -15 6 -15 14 0 24 -17 28 -23 6z"/>
<path d="M5163 2508 c-4 -7 -9 -33 -11 -58 -3 -53 -15 -68 -37 -50 -11 9 -13
16 -5 24 5 5 10 15 10 21 0 5 -7 1 -15 -9 -17 -23 -20 -56 -5 -56 18 0 10 -45
-11 -63 -15 -13 -19 -25 -15 -42 3 -13 2 -35 -3 -48 -13 -33 -3 -41 19 -15
l17 21 15 -31 c9 -16 12 -34 8 -39 -15 -14 -23 -80 -11 -87 7 -5 11 4 11 22 0
17 6 32 14 35 19 7 31 66 17 80 -6 6 -11 18 -11 27 1 11 5 9 19 -7 25 -30 31
-29 31 7 0 17 7 33 18 39 15 9 14 10 -7 11 -19 0 -22 4 -17 23 3 12 6 28 6 35
0 6 7 12 15 12 8 0 15 7 15 15 0 8 -5 15 -11 15 -6 0 -9 6 -6 13 2 6 12 11 22
9 13 -3 16 1 12 13 -4 9 -1 24 5 35 10 15 9 23 -6 39 -21 23 -70 28 -83 9z
m-3 -164 c0 -8 -4 -12 -10 -9 -5 3 -10 10 -10 16 0 5 5 9 10 9 6 0 10 -7 10
-16z m-6 -65 c-3 -5 -10 -7 -15 -3 -5 3 -7 10 -3 15 3 5 10 7 15 3 5 -3 7 -10
3 -15z"/>
<path d="M6890 2506 c0 -9 5 -16 10 -16 6 0 10 4 10 9 0 6 -4 13 -10 16 -5 3
-10 -1 -10 -9z"/>
<path d="M6890 2445 c0 -22 4 -34 10 -30 6 3 10 17 10 30 0 13 -4 27 -10 30
-6 4 -10 -8 -10 -30z"/>
<path d="M7045 2428 c-19 -60 -33 -222 -17 -199 6 8 13 41 17 72 7 57 24 87
45 74 18 -11 11 10 -10 28 -16 13 -18 22 -11 35 5 10 6 24 2 31 -5 8 -14 -6
-26 -41z"/>
<path d="M5325 2460 c-8 -13 15 -24 27 -12 6 6 4 11 -6 15 -8 3 -18 2 -21 -3z"/>
<path d="M5610 2426 c0 -9 5 -16 10 -16 6 0 10 4 10 9 0 6 -4 13 -10 16 -5 3
-10 -1 -10 -9z"/>
<path d="M5411 2395 c0 -35 2 -37 11 -19 7 15 7 28 -1 40 -9 16 -10 12 -10
-21z"/>
<path d="M5756 2415 c4 -8 12 -15 20 -15 8 0 11 6 8 15 -4 8 -12 15 -20 15 -8
0 -11 -6 -8 -15z"/>
<path d="M6678 2414 c-8 -7 2 -44 12 -44 11 0 18 22 12 38 -4 13 -15 16 -24 6z"/>
<path d="M5675 2380 c-4 -7 -1 -16 6 -21 17 -10 26 8 11 23 -6 6 -12 6 -17 -2z"/>
<path d="M7190 2349 c0 -5 5 -7 10 -4 6 3 10 8 10 11 0 2 -4 4 -10 4 -5 0 -10
-5 -10 -11z"/>
<path d="M5680 2323 c0 -13 5 -23 10 -23 13 0 13 11 0 30 -8 12 -10 11 -10 -7z"/>
<path d="M7400 2310 c0 -5 5 -10 10 -10 6 0 10 5 10 10 0 6 -4 10 -10 10 -5 0
-10 -4 -10 -10z"/>
<path d="M376 2295 c-3 -8 -1 -15 4 -15 6 0 10 7 10 15 0 8 -2 15 -4 15 -2 0
-6 -7 -10 -15z"/>
<path d="M5586 2303 c-11 -11 -6 -23 9 -23 8 0 15 4 15 9 0 13 -16 22 -24 14z"/>
<path d="M5671 2274 c0 -11 3 -14 6 -6 3 7 2 16 -1 19 -3 4 -6 -2 -5 -13z"/>
<path d="M7380 2265 c0 -8 5 -15 10 -15 6 0 10 7 10 15 0 8 -4 15 -10 15 -5 0
-10 -7 -10 -15z"/>
<path d="M5600 2260 c0 -5 5 -10 10 -10 6 0 10 5 10 10 0 6 -4 10 -10 10 -5 0
-10 -4 -10 -10z"/>
<path d="M5221 2221 c-23 -32 -17 -46 21 -46 34 0 42 9 34 38 -9 37 -32 40
-55 8z"/>
<path d="M5407 2203 c-10 -61 15 -58 28 5 5 24 3 32 -8 32 -9 0 -17 -14 -20
-37z"/>
<path d="M5596 2199 c-6 -34 -1 -49 17 -49 10 0 13 24 8 73 -2 20 -19 3 -25
-24z"/>
<path d="M6800 2220 c0 -5 5 -10 10 -10 6 0 10 5 10 10 0 6 -4 10 -10 10 -5 0
-10 -4 -10 -10z"/>
<path d="M7168 2212 c-16 -2 -28 -8 -28 -14 0 -6 9 -8 21 -5 18 5 20 2 17 -18
-3 -15 0 -26 10 -30 21 -8 38 11 25 27 -6 7 -12 20 -14 28 -3 10 -13 14 -31
12z"/>
<path d="M6810 2165 c0 -13 7 -28 16 -33 20 -11 32 -116 14 -137 -10 -12 -8
-18 11 -34 l24 -19 6 46 c3 26 7 41 7 34 3 -20 30 -44 37 -32 6 10 -20 66 -41
85 -5 5 -21 33 -35 62 -26 57 -39 66 -39 28z"/>
<path d="M6130 2158 c1 -19 29 -53 37 -45 8 8 -17 57 -29 57 -4 0 -8 -6 -8
-12z"/>
<path d="M5406 2123 c-4 -12 -4 -33 0 -48 6 -23 9 -25 21 -13 12 12 12 19 -1
48 -12 30 -14 31 -20 13z"/>
<path d="M6891 2124 c0 -11 3 -14 6 -6 3 7 2 16 -1 19 -3 4 -6 -2 -5 -13z"/>
<path d="M7351 2114 c0 -11 3 -14 6 -6 3 7 2 16 -1 19 -3 4 -6 -2 -5 -13z"/>
<path d="M5586 2098 c9 -31 12 -34 25 -21 15 15 4 43 -16 43 -12 0 -15 -6 -9
-22z"/>
<path d="M5782 2108 c-17 -17 -15 -28 10 -50 22 -19 23 -19 32 2 16 36 -17 73
-42 48z"/>
<path d="M7238 2098 c-8 -49 14 -81 25 -36 3 11 0 30 -7 40 -13 18 -14 18 -18
-4z"/>
<path d="M7041 2094 c0 -11 3 -14 6 -6 3 7 2 16 -1 19 -3 4 -6 -2 -5 -13z"/>
<path d="M5058 2052 c-23 -49 -33 -102 -20 -102 13 0 33 25 26 33 -8 8 5 47
17 47 12 0 12 -47 -1 -55 -5 -3 -10 -18 -10 -32 0 -21 2 -24 15 -13 8 7 15 21
15 31 0 10 4 20 10 24 11 7 3 33 -18 57 -8 10 -12 24 -9 33 13 32 -9 13 -25
-23z"/>
<path d="M5650 2070 c0 -5 5 -10 11 -10 5 0 7 5 4 10 -3 6 -8 10 -11 10 -2 0
-4 -4 -4 -10z"/>
<path d="M6971 2024 c0 -11 3 -14 6 -6 3 7 2 16 -1 19 -3 4 -6 -2 -5 -13z"/>
<path d="M1546 2021 c-8 -12 3 -41 15 -41 5 0 9 11 9 25 0 25 -14 34 -24 16z"/>
<path d="M6584 2005 c-9 -37 2 -41 14 -6 7 18 7 31 2 31 -5 0 -12 -11 -16 -25z"/>
<path d="M7330 1994 c0 -14 4 -23 10 -19 6 3 10 15 10 26 0 10 -4 19 -10 19
-5 0 -10 -12 -10 -26z"/>
<path d="M5182 1989 c-10 -15 -10 -25 -3 -32 7 -7 13 -2 21 17 12 33 12 36 2
36 -4 0 -13 -10 -20 -21z"/>
<path d="M5140 1985 c0 -8 5 -15 10 -15 6 0 10 7 10 15 0 8 -4 15 -10 15 -5 0
-10 -7 -10 -15z"/>
<path d="M6146 1981 c-4 -7 -5 -15 -2 -18 9 -9 19 4 14 18 -4 11 -6 11 -12 0z"/>
<path d="M5654 1945 c-7 -17 4 -37 17 -30 12 8 12 45 -1 45 -6 0 -13 -7 -16
-15z"/>
<path d="M5615 1940 c-3 -5 -1 -10 4 -10 6 0 11 5 11 10 0 6 -2 10 -4 10 -3 0
-8 -4 -11 -10z"/>
<path d="M7093 1938 c2 -7 0 -21 -4 -30 -5 -10 -5 -19 0 -23 11 -6 16 1 25 38
5 21 3 27 -10 27 -8 0 -14 -6 -11 -12z"/>
<path d="M6400 1924 c0 -8 5 -12 10 -9 6 3 10 10 10 16 0 5 -4 9 -10 9 -5 0
-10 -7 -10 -16z"/>
<path d="M5180 1911 c0 -12 5 -21 10 -21 6 0 10 6 10 14 0 8 -4 18 -10 21 -5
3 -10 -3 -10 -14z"/>
<path d="M5026 1905 c-3 -8 -1 -15 4 -15 6 0 10 7 10 15 0 8 -2 15 -4 15 -2 0
-6 -7 -10 -15z"/>
<path d="M5273 1893 c4 -3 -2 -17 -14 -29 -13 -14 -17 -24 -10 -29 6 -3 11 1
11 9 0 9 7 16 15 16 8 0 15 9 15 20 0 11 -5 20 -12 20 -6 0 -8 -3 -5 -7z"/>
<path d="M5792 1884 c1 -9 9 -19 16 -22 9 -3 13 2 10 14 -1 9 -9 19 -16 22 -9
3 -13 -2 -10 -14z"/>
<path d="M6366 1885 c4 -8 8 -15 10 -15 2 0 4 7 4 15 0 8 -4 15 -10 15 -5 0
-7 -7 -4 -15z"/>
<path d="M4992 1861 c2 -14 9 -26 16 -29 17 -5 15 10 -3 34 -15 18 -15 18 -13
-5z"/>
<path d="M7450 1850 c-8 -14 -8 -32 -1 -57 6 -20 7 -41 4 -47 -4 -6 1 -5 11 3
11 10 14 17 7 24 -7 7 -6 16 3 26 15 17 11 71 -5 71 -4 0 -13 -9 -19 -20z"/>
<path d="M5055 1830 c3 -5 8 -10 11 -10 2 0 4 5 4 10 0 6 -5 10 -11 10 -5 0
-7 -4 -4 -10z"/>
<path d="M5523 1823 c-16 -6 -17 -39 -1 -49 8 -5 9 -2 4 11 -4 11 -2 22 6 26
15 9 8 18 -9 12z"/>
<path d="M5296 1807 c3 -10 9 -15 12 -12 3 3 0 11 -7 18 -10 9 -11 8 -5 -6z"/>
<path d="M5024 1795 c-4 -8 -2 -21 3 -28 15 -18 23 -73 13 -83 -6 -6 -6 -22
-1 -41 5 -17 7 -52 5 -79 -2 -27 -5 -80 -8 -119 -6 -108 -16 -147 -38 -153
-14 -3 -16 -7 -7 -18 17 -21 35 -17 48 12 13 30 44 196 43 237 -1 28 13 37 21
15 2 -7 2 1 -1 17 -9 56 -3 107 14 120 17 13 13 67 -5 73 -9 3 -11 -2 -6 -17
4 -13 1 -28 -7 -38 -7 -9 -12 -19 -10 -22 2 -3 -1 -7 -6 -9 -5 -1 -10 21 -11
50 -1 29 -7 55 -13 59 -6 4 -8 14 -5 23 4 10 1 16 -9 16 -8 0 -17 -7 -20 -15z"/>
<path d="M6501 1794 c0 -11 3 -14 6 -6 3 7 2 16 -1 19 -3 4 -6 -2 -5 -13z"/>
<path d="M7140 1801 c0 -6 5 -13 10 -16 6 -3 10 1 10 9 0 9 -4 16 -10 16 -5 0
-10 -4 -10 -9z"/>
<path d="M5452 1788 c6 -18 28 -21 28 -4 0 9 -7 16 -16 16 -9 0 -14 -5 -12
-12z"/>
<path d="M5571 1791 c-20 -6 -22 -8 -9 -19 12 -10 18 -9 28 3 16 19 11 23 -19
16z"/>
<path d="M6342 1789 c2 -7 10 -15 17 -17 8 -3 12 1 9 9 -2 7 -10 15 -17 17 -8
3 -12 -1 -9 -9z"/>
<path d="M5125 1770 c-3 -5 1 -10 9 -10 9 0 16 5 16 10 0 6 -4 10 -9 10 -6 0
-13 -4 -16 -10z"/>
<path d="M5778 1755 c-9 -9 4 -61 20 -83 13 -16 21 -19 32 -12 13 9 13 12 -2
21 -10 5 -18 20 -18 33 0 23 -22 51 -32 41z"/>
<path d="M6375 1730 c10 -11 20 -20 23 -20 3 0 -3 9 -13 20 -10 11 -20 20 -23
20 -3 0 3 -9 13 -20z"/>
<path d="M1090 1720 c0 -5 5 -10 11 -10 5 0 7 5 4 10 -3 6 -8 10 -11 10 -2 0
-4 -4 -4 -10z"/>
<path d="M7380 1720 c0 -5 5 -10 10 -10 6 0 10 5 10 10 0 6 -4 10 -10 10 -5 0
-10 -4 -10 -10z"/>
<path d="M7490 1715 c0 -8 5 -15 10 -15 6 0 10 7 10 15 0 8 -4 15 -10 15 -5 0
-10 -7 -10 -15z"/>
<path d="M4850 1686 c0 -14 4 -27 9 -30 10 -6 23 33 15 46 -10 16 -24 7 -24
-16z"/>
<path d="M7355 1680 c7 -33 4 -35 -26 -19 -11 6 -18 17 -15 24 3 10 -3 9 -25
-3 -24 -14 -28 -21 -23 -42 4 -14 6 -37 5 -52 -1 -15 4 -30 10 -33 6 -4 9 -1
8 6 -3 15 30 83 37 77 2 -3 5 -23 6 -46 2 -51 14 -54 33 -8 8 19 19 37 25 41
12 7 1 67 -14 77 -21 15 -28 8 -21 -22z"/>
<path d="M6297 1665 c17 -35 33 -46 33 -22 -1 13 -34 57 -44 57 -3 0 2 -16 11
-35z"/>
<path d="M7410 1685 c0 -9 5 -15 11 -13 6 2 11 8 11 13 0 5 -5 11 -11 13 -6 2
-11 -4 -11 -13z"/>
<path d="M6231 1674 c0 -11 3 -14 6 -6 3 7 2 16 -1 19 -3 4 -6 -2 -5 -13z"/>
<path d="M6550 1680 c0 -5 5 -10 10 -10 6 0 10 5 10 10 0 6 -4 10 -10 10 -5 0
-10 -4 -10 -10z"/>
<path d="M4881 1649 c-6 -18 -11 -38 -11 -45 0 -21 21 -16 27 6 3 11 10 20 15
20 13 0 6 43 -8 47 -7 2 -17 -10 -23 -28z"/>
<path d="M4945 1670 c3 -5 8 -10 11 -10 2 0 4 5 4 10 0 6 -5 10 -11 10 -5 0
-7 -4 -4 -10z"/>
<path d="M6900 1669 c0 -5 5 -7 10 -4 6 3 10 8 10 11 0 2 -4 4 -10 4 -5 0 -10
-5 -10 -11z"/>
<path d="M5516 1645 c-7 -29 -21 -32 -34 -9 -6 11 -12 13 -16 6 -3 -6 -2 -13
4 -17 5 -3 10 -17 10 -30 0 -13 4 -26 9 -30 10 -6 33 28 29 42 -1 4 2 18 6 31
4 13 6 26 3 28 -2 3 -7 -7 -11 -21z"/>
<path d="M6435 1661 c-6 -11 9 -23 19 -14 9 9 7 23 -3 23 -6 0 -12 -4 -16 -9z"/>
<path d="M5950 1619 c0 -17 4 -28 10 -24 6 3 10 17 10 31 0 13 -4 24 -10 24
-5 0 -10 -14 -10 -31z"/>
<path d="M6225 1629 c-4 -12 -2 -26 4 -32 8 -8 11 -2 11 21 0 37 -6 41 -15 11z"/>
<path d="M4821 1613 c-16 -41 -30 -123 -20 -123 4 0 13 19 20 43 6 23 15 50
20 59 11 22 12 48 0 48 -5 0 -14 -12 -20 -27z"/>
<path d="M7390 1575 c0 -14 5 -25 10 -25 6 0 10 11 10 25 0 14 -4 25 -10 25
-5 0 -10 -11 -10 -25z"/>
<path d="M4852 1570 c0 -14 2 -19 5 -12 2 6 2 18 0 25 -3 6 -5 1 -5 -13z"/>
<path d="M6607 1583 c-4 -3 -7 -11 -7 -17 0 -6 5 -5 12 2 6 6 9 14 7 17 -3 3
-9 2 -12 -2z"/>
<path d="M6080 1554 c0 -8 5 -12 10 -9 6 3 10 10 10 16 0 5 -4 9 -10 9 -5 0
-10 -7 -10 -16z"/>
<path d="M6230 1501 c0 -24 18 -37 31 -24 13 13 1 43 -17 43 -8 0 -14 -9 -14
-19z"/>
<path d="M6705 1510 c-4 -6 -3 -16 3 -22 13 -13 23 4 13 21 -7 10 -10 10 -16
1z"/>
<path d="M7272 1500 c0 -14 2 -19 5 -12 2 6 2 18 0 25 -3 6 -5 1 -5 -13z"/>
<path d="M7375 1510 c3 -5 8 -10 11 -10 2 0 4 5 4 10 0 6 -5 10 -11 10 -5 0
-7 -4 -4 -10z"/>
<path d="M7661 1500 c-7 -197 -8 -511 -2 -565 4 -38 4 -72 0 -75 -4 -3 -7
-194 -6 -425 l2 -420 -110 0 c-60 0 -127 3 -147 7 -30 5 -38 4 -38 -8 0 -12
28 -14 160 -14 l160 0 -1 743 c0 408 -5 751 -9 762 -8 18 -9 18 -9 -5z"/>
<path d="M7516 1492 c-4 -13 -5 -26 -2 -29 10 -11 18 4 14 29 l-4 23 -8 -23z"/>
<path d="M5990 1475 c0 -8 7 -15 15 -15 8 0 15 7 15 15 0 8 -7 15 -15 15 -8 0
-15 -7 -15 -15z"/>
<path d="M6090 1458 c0 -19 2 -20 10 -8 13 19 13 30 0 30 -5 0 -10 -10 -10
-22z"/>
<path d="M6686 1471 c-4 -7 -5 -15 -2 -18 9 -9 19 4 14 18 -4 11 -6 11 -12 0z"/>
<path d="M4780 1460 c0 -5 5 -10 10 -10 6 0 10 5 10 10 0 6 -4 10 -10 10 -5 0
-10 -4 -10 -10z"/>
<path d="M7046 1441 c-4 -7 -5 -15 -2 -18 9 -9 19 4 14 18 -4 11 -6 11 -12 0z"/>
<path d="M6915 1430 c-3 -5 -1 -10 4 -10 6 0 11 5 11 10 0 6 -2 10 -4 10 -3 0
-8 -4 -11 -10z"/>
<path d="M7093 1400 c0 -22 4 -40 8 -40 5 0 9 6 9 14 0 8 5 16 11 18 8 3 8 10
-2 26 -20 32 -26 27 -26 -18z"/>
<path d="M6100 1400 c-12 -23 -5 -26 16 -6 8 9 10 17 5 21 -6 3 -15 -4 -21
-15z"/>
<path d="M5310 1400 c0 -5 5 -10 11 -10 5 0 7 5 4 10 -3 6 -8 10 -11 10 -2 0
-4 -4 -4 -10z"/>
<path d="M7326 1330 c7 -74 16 -82 28 -25 4 22 0 37 -14 55 l-20 25 6 -55z"/>
<path d="M7130 1350 c0 -5 5 -10 11 -10 5 0 7 5 4 10 -3 6 -8 10 -11 10 -2 0
-4 -4 -4 -10z"/>
<path d="M5565 1320 c3 -5 8 -10 11 -10 2 0 4 5 4 10 0 6 -5 10 -11 10 -5 0
-7 -4 -4 -10z"/>
<path d="M5865 1240 c3 -5 8 -10 11 -10 2 0 4 5 4 10 0 6 -5 10 -11 10 -5 0
-7 -4 -4 -10z"/>
<path d="M7220 1210 c0 -5 5 -10 10 -10 6 0 10 5 10 10 0 6 -4 10 -10 10 -5 0
-10 -4 -10 -10z"/>
<path d="M4770 1180 c0 -5 5 -10 10 -10 6 0 10 5 10 10 0 6 -4 10 -10 10 -5 0
-10 -4 -10 -10z"/>
<path d="M5087 1157 c-11 -29 -9 -43 4 -30 6 6 9 19 7 29 -3 18 -4 18 -11 1z"/>
<path d="M7360 1130 c0 -5 7 -10 16 -10 8 0 12 5 9 10 -3 6 -10 10 -16 10 -5
0 -9 -4 -9 -10z"/>
<path d="M5611 1029 c-18 -15 -21 -23 -13 -31 9 -9 12 -8 12 5 0 9 7 17 15 17
8 0 15 7 15 15 0 19 0 19 -29 -6z"/>
<path d="M5357 1025 c-19 -14 -19 -17 5 -97 11 -38 38 -43 38 -7 0 11 5 29 12
42 26 50 28 58 23 67 -9 15 -57 11 -78 -5z"/>
<path d="M4730 995 c0 -8 7 -15 15 -15 9 0 12 6 9 15 -4 8 -10 15 -15 15 -5 0
-9 -7 -9 -15z"/>
<path d="M5645 989 c-4 -6 -4 -13 -1 -16 8 -8 36 5 36 17 0 13 -27 13 -35 -1z"/>
<path d="M5532 978 c-7 -7 -12 -21 -12 -33 0 -12 -4 -25 -9 -30 -13 -15 -21
-74 -11 -80 6 -3 10 1 10 10 0 13 6 16 24 11 29 -7 35 1 41 49 4 30 2 35 -13
33 -13 -2 -16 3 -14 25 4 30 1 32 -16 15z m23 -88 c3 -5 -1 -10 -9 -10 -9 0
-16 5 -16 10 0 6 4 10 9 10 6 0 13 -4 16 -10z"/>
<path d="M5451 934 c-13 -29 -6 -47 9 -24 9 14 14 50 7 50 -2 0 -9 -12 -16
-26z"/>
<path d="M6165 930 c3 -5 8 -10 11 -10 2 0 4 5 4 10 0 6 -5 10 -11 10 -5 0 -7
-4 -4 -10z"/>
<path d="M7255 898 c9 -43 17 -49 37 -27 15 16 15 19 -3 38 -29 31 -42 26 -34
-11z"/>
<path d="M7486 898 c9 -31 12 -34 26 -20 9 9 9 12 0 12 -7 0 -12 7 -12 15 0 8
-5 15 -11 15 -6 0 -8 -9 -3 -22z"/>
<path d="M7592 900 c0 -14 2 -19 5 -12 2 6 2 18 0 25 -3 6 -5 1 -5 -13z"/>
<path d="M6580 900 c0 -5 5 -10 10 -10 6 0 10 5 10 10 0 6 -4 10 -10 10 -5 0
-10 -4 -10 -10z"/>
<path d="M7451 883 c0 -25 1 -26 9 -8 12 27 12 35 0 35 -5 0 -10 -12 -9 -27z"/>
<path d="M5360 811 c0 -5 5 -13 10 -16 6 -3 10 -2 10 4 0 5 -4 13 -10 16 -5 3
-10 2 -10 -4z"/>
<path d="M4480 774 c0 -8 5 -12 10 -9 6 3 10 10 10 16 0 5 -4 9 -10 9 -5 0
-10 -7 -10 -16z"/>
<path d="M5390 770 c0 -5 5 -10 11 -10 5 0 7 5 4 10 -3 6 -8 10 -11 10 -2 0
-4 -4 -4 -10z"/>
<path d="M5530 717 c0 -8 7 -21 16 -28 14 -11 15 -10 12 11 -3 26 -28 41 -28
17z"/>
<path d="M7488 723 c7 -3 16 -2 19 1 4 3 -2 6 -13 5 -11 0 -14 -3 -6 -6z"/>
<path d="M4675 700 c-3 -5 1 -10 9 -10 9 0 16 5 16 10 0 6 -4 10 -9 10 -6 0
-13 -4 -16 -10z"/>
<path d="M7505 699 c-10 -15 3 -25 16 -12 7 7 7 13 1 17 -6 3 -14 1 -17 -5z"/>
<path d="M5334 685 c11 -8 22 -12 25 -9 6 6 -19 24 -34 24 -5 -1 -1 -7 9 -15z"/>
<path d="M6342 678 c-18 -18 -15 -51 4 -44 9 3 18 6 20 6 8 0 4 39 -4 44 -5 3
-14 0 -20 -6z"/>
<path d="M7367 673 c-4 -3 -7 -11 -7 -17 0 -6 5 -5 12 2 6 6 9 14 7 17 -3 3
-9 2 -12 -2z"/>
<path d="M7460 670 c0 -10 20 -25 43 -33 14 -5 18 -3 15 10 -3 16 -58 39 -58
23z"/>
<path d="M6125 660 c-8 -13 12 -40 31 -40 7 0 11 -6 9 -12 -3 -7 2 -31 9 -53
12 -32 16 -36 22 -22 3 10 2 35 -4 55 -6 20 -10 46 -9 57 1 15 -5 21 -25 23
-14 2 -29 -2 -33 -8z"/>
<path d="M5201 646 c-8 -9 -11 -19 -7 -23 9 -9 29 13 24 27 -2 8 -8 7 -17 -4z"/>
<path d="M5305 651 c-3 -5 -1 -12 5 -16 5 -3 10 1 10 9 0 18 -6 21 -15 7z"/>
<path d="M165 641 c-6 -11 9 -23 19 -14 9 9 7 23 -3 23 -6 0 -12 -4 -16 -9z"/>
<path d="M5136 605 c-3 -9 0 -15 9 -15 8 0 15 7 15 15 0 8 -4 15 -9 15 -5 0
-11 -7 -15 -15z"/>
<path d="M5277 593 c-2 -4 -1 -17 3 -28 7 -19 8 -19 15 -2 8 18 -9 46 -18 30z"/>
<path d="M6685 590 c-7 -12 2 -30 16 -30 12 0 12 27 0 35 -5 3 -12 1 -16 -5z"/>
<path d="M5191 574 c0 -11 3 -14 6 -6 3 7 2 16 -1 19 -3 4 -6 -2 -5 -13z"/>
<path d="M4684 566 c-8 -22 -1 -59 14 -64 7 -2 12 5 12 16 0 26 11 34 24 17 7
-10 16 -12 25 -6 20 13 6 41 -17 34 -11 -2 -23 0 -26 6 -10 15 -26 14 -32 -3z"/>
<path d="M5190 538 c0 -19 18 -43 25 -36 9 9 -4 48 -16 48 -5 0 -9 -6 -9 -12z"/>
<path d="M5250 540 c0 -5 5 -10 10 -10 6 0 10 5 10 10 0 6 -4 10 -10 10 -5 0
-10 -4 -10 -10z"/>
<path d="M5505 541 c-6 -11 9 -23 19 -14 9 9 7 23 -3 23 -6 0 -12 -4 -16 -9z"/>
<path d="M4636 505 c-9 -26 -7 -32 5 -12 6 10 9 21 6 23 -2 3 -7 -2 -11 -11z"/>
<path d="M3080 501 c0 -5 5 -13 10 -16 6 -3 10 -2 10 4 0 5 -4 13 -10 16 -5 3
-10 2 -10 -4z"/>
<path d="M4870 489 c0 -5 5 -7 10 -4 6 3 10 8 10 11 0 2 -4 4 -10 4 -5 0 -10
-5 -10 -11z"/>
<path d="M5240 471 c-6 -12 -6 -22 -1 -26 6 -3 15 3 21 14 6 12 6 22 1 26 -6
3 -15 -3 -21 -14z"/>
<path d="M4646 465 c-8 -8 -19 -15 -25 -15 -6 0 -11 -9 -11 -20 0 -25 27 -27
33 -2 4 14 6 14 12 -5 9 -28 22 -29 30 -3 7 22 25 27 25 8 0 -9 3 -9 11 -1 18
18 2 46 -21 40 -11 -3 -20 -1 -20 4 0 14 -17 11 -34 -6z"/>
<path d="M960 460 c0 -5 5 -10 10 -10 6 0 10 5 10 10 0 6 -4 10 -10 10 -5 0
-10 -4 -10 -10z"/>
<path d="M6958 454 c-15 -14 2 -21 48 -18 46 3 76 14 37 14 -11 0 -33 3 -49 6
-16 3 -32 2 -36 -2z"/>
<path d="M3108 426 c-1 -14 -2 -34 -2 -43 -1 -10 10 -19 27 -24 20 -5 27 -4
27 7 0 8 -7 14 -16 14 -12 0 -15 6 -10 24 4 15 0 28 -9 36 -13 10 -15 8 -17
-14z"/>
<path d="M4417 443 c-4 -3 -7 -13 -7 -22 1 -13 3 -13 11 2 11 19 8 33 -4 20z"/>
<path d="M4830 440 c0 -5 5 -10 10 -10 6 0 10 5 10 10 0 6 -4 10 -10 10 -5 0
-10 -4 -10 -10z"/>
<path d="M7093 438 c2 -7 12 -13 22 -13 10 0 20 6 23 13 2 7 -6 12 -23 12 -17
0 -25 -5 -22 -12z"/>
<path d="M3050 400 c0 -5 5 -10 11 -10 5 0 7 5 4 10 -3 6 -8 10 -11 10 -2 0
-4 -4 -4 -10z"/>
<path d="M6855 375 c-8 -45 -22 -76 -39 -87 -6 -5 -2 -8 10 -8 12 0 27 6 33
14 17 21 25 81 13 102 -9 16 -11 13 -17 -21z"/>
<path d="M4800 391 c0 -20 25 -76 42 -93 23 -23 23 -22 -3 46 -19 49 -39 73
-39 47z"/>
<path d="M6001 370 c-13 -11 -35 -20 -50 -20 -27 0 -51 -16 -51 -33 0 -5 6 -4
14 2 10 8 21 8 40 1 21 -8 28 -7 32 5 4 8 15 15 25 15 10 0 19 5 19 10 0 6 11
10 25 10 31 0 33 16 3 24 -31 8 -30 8 -57 -14z"/>
<path d="M5657 374 c-8 -8 1 -24 14 -24 5 0 9 7 9 15 0 15 -12 20 -23 9z"/>
<path d="M3077 363 c-8 -12 10 -168 21 -189 14 -27 30 -104 23 -108 -3 -2 -21
-7 -38 -11 -19 -4 -33 -13 -33 -21 0 -11 6 -13 19 -9 11 3 25 -1 34 -10 20
-19 47 -19 47 0 0 8 7 15 15 15 8 0 15 4 15 9 0 5 14 12 30 16 17 4 30 12 30
18 0 7 3 23 7 36 5 20 3 22 -13 17 -17 -5 -19 0 -21 42 -2 64 -2 64 -13 57 -5
-3 -10 -15 -10 -26 0 -11 -4 -17 -10 -14 -5 3 -10 22 -10 40 0 25 4 33 14 29
9 -3 15 4 19 23 7 35 4 38 -17 18 -20 -20 -36 -12 -29 15 6 22 -9 27 -25 8
-15 -20 -7 -79 24 -177 8 -24 13 -46 10 -48 -6 -7 -36 52 -36 71 0 8 -5 27
-11 43 -7 15 -11 47 -10 71 2 29 -2 44 -12 48 -9 3 -13 13 -10 25 5 19 -1 26
-10 12z m93 -307 c0 -3 -4 -8 -10 -11 -5 -3 -10 -1 -10 4 0 6 5 11 10 11 6 0
10 -2 10 -4z"/>
<path d="M4465 360 c-3 -5 -1 -10 4 -10 6 0 11 5 11 10 0 6 -2 10 -4 10 -3 0
-8 -4 -11 -10z"/>
<path d="M6177 354 c-3 -4 -2 -16 4 -26 13 -24 35 -9 26 16 -7 17 -19 21 -30
10z"/>
<path d="M4337 320 c-3 -11 -1 -20 4 -20 5 0 9 9 9 20 0 11 -2 20 -4 20 -2 0
-6 -9 -9 -20z"/>
<path d="M4680 329 c0 -5 5 -7 10 -4 6 3 10 8 10 11 0 2 -4 4 -10 4 -5 0 -10
-5 -10 -11z"/>
<path d="M4416 311 c-10 -11 -23 -17 -30 -15 -33 12 -58 -83 -29 -107 10 -9
11 -15 2 -26 -14 -16 -6 -28 15 -20 9 4 13 13 10 22 -3 8 -1 15 5 15 19 0 1
-83 -23 -104 -14 -13 -17 -20 -8 -23 6 -3 12 -13 12 -24 0 -10 7 -19 15 -19
18 0 19 12 3 28 -9 9 -7 13 5 18 9 3 17 15 17 25 0 11 7 31 16 44 9 14 14 34
11 45 -3 13 1 24 13 30 12 6 16 17 13 30 -3 11 -9 17 -14 14 -12 -7 -11 10 1
22 7 7 6 19 -3 37 -14 26 -14 26 -31 8z m-27 -97 c-17 -21 -21 -11 -8 22 10
23 13 25 16 11 3 -10 -1 -25 -8 -33z"/>
<path d="M4740 320 c0 -5 5 -10 11 -10 5 0 7 5 4 10 -3 6 -8 10 -11 10 -2 0
-4 -4 -4 -10z"/>
<path d="M6108 313 c7 -3 16 -2 19 1 4 3 -2 6 -13 5 -11 0 -14 -3 -6 -6z"/>
<path d="M6218 293 c7 -3 16 -2 19 1 4 3 -2 6 -13 5 -11 0 -14 -3 -6 -6z"/>
<path d="M3226 282 c-3 -6 -1 -14 5 -17 15 -10 25 3 12 16 -7 7 -13 7 -17 1z"/>
<path d="M5335 280 c3 -5 8 -10 11 -10 2 0 4 5 4 10 0 6 -5 10 -11 10 -5 0 -7
-4 -4 -10z"/>
<path d="M4290 236 c0 -9 5 -16 10 -16 6 0 10 4 10 9 0 6 -4 13 -10 16 -5 3
-10 -1 -10 -9z"/>
<path d="M5135 220 c-3 -5 -1 -10 4 -10 6 0 11 5 11 10 0 6 -2 10 -4 10 -3 0
-8 -4 -11 -10z"/>
<path d="M4980 209 c0 -5 5 -7 10 -4 6 3 10 8 10 11 0 2 -4 4 -10 4 -5 0 -10
-5 -10 -11z"/>
<path d="M4945 170 c3 -5 8 -10 11 -10 2 0 4 5 4 10 0 6 -5 10 -11 10 -5 0 -7
-4 -4 -10z"/>
<path d="M5005 170 c3 -5 8 -10 11 -10 2 0 4 5 4 10 0 6 -5 10 -11 10 -5 0 -7
-4 -4 -10z"/>
<path d="M6693 173 c-36 -5 -44 -22 -14 -30 11 -3 21 -15 23 -27 5 -33 34 -27
30 7 -2 17 3 29 13 33 17 7 10 25 -8 22 -7 0 -27 -3 -44 -5z"/>
<path d="M6210 116 c0 -8 5 -18 10 -21 6 -3 10 1 10 9 0 8 -4 18 -10 21 -5 3
-10 -1 -10 -9z"/>
<path d="M6820 105 c0 -16 27 -32 37 -22 5 6 -21 37 -31 37 -3 0 -6 -7 -6 -15z"/>
<path d="M3300 85 c0 -9 5 -15 11 -13 6 2 11 8 11 13 0 5 -5 11 -11 13 -6 2
-11 -4 -11 -13z"/>
<path d="M1366 74 c-8 -20 33 -35 56 -20 28 17 21 32 -16 33 -22 1 -37 -4 -40
-13z"/>
<path d="M3025 81 c-3 -5 -1 -12 5 -16 5 -3 10 1 10 9 0 18 -6 21 -15 7z"/>
<path d="M4800 69 c-11 -19 -7 -39 5 -27 7 7 15 48 10 48 -2 0 -9 -9 -15 -21z"/>
<path d="M4972 78 c6 -18 25 -20 31 -3 5 10 0 15 -14 15 -12 0 -19 -5 -17 -12z"/>
<path d="M5360 60 c0 -5 5 -10 11 -10 5 0 7 5 4 10 -3 6 -8 10 -11 10 -2 0 -4
-4 -4 -10z"/>
<path d="M1612 44 c1 -9 13 -21 26 -25 20 -8 23 -6 20 14 -2 14 -11 23 -26 25
-18 3 -23 -1 -20 -14z"/>
<path d="M5620 50 c0 -5 7 -10 16 -10 8 0 12 5 9 10 -3 6 -10 10 -16 10 -5 0
-9 -4 -9 -10z"/>
<path d="M1565 39 c-4 -6 -4 -13 -1 -16 8 -8 36 5 36 17 0 13 -27 13 -35 -1z"/>
<path d="M2895 40 c-3 -5 1 -10 9 -10 9 0 16 5 16 10 0 6 -4 10 -9 10 -6 0
-13 -4 -16 -10z"/>
<path d="M4427 43 c-4 -3 -7 -11 -7 -17 0 -6 5 -5 12 2 6 6 9 14 7 17 -3 3 -9
2 -12 -2z"/>
<path d="M5400 40 c0 -5 5 -10 11 -10 5 0 7 5 4 10 -3 6 -8 10 -11 10 -2 0 -4
-4 -4 -10z"/>
<path d="M2768 29 c-24 -13 -23 -29 2 -29 13 0 20 7 20 20 0 23 1 23 -22 9z"/>
<path d="M4102 24 c1 -9 9 -19 16 -22 9 -3 13 2 10 14 -1 9 -9 19 -16 22 -9 3
-13 -2 -10 -14z"/>
<path d="M4147 29 c7 -9 10 -19 6 -22 -3 -4 -1 -7 5 -7 17 0 15 16 -5 31 -16
12 -17 12 -6 -2z"/>
<path d="M1695 20 c-3 -5 -2 -10 4 -10 5 0 13 5 16 10 3 6 2 10 -4 10 -5 0
-13 -4 -16 -10z"/>
<path d="M2825 10 c-3 -5 -1 -10 4 -10 6 0 11 5 11 10 0 6 -2 10 -4 10 -3 0
-8 -4 -11 -10z"/>
<path d="M3198 8 c9 -9 15 -9 24 0 9 9 7 12 -12 12 -19 0 -21 -3 -12 -12z"/>
</g>
</svg>
